<?xml version="1.0" standalone="no"?>
<!DOCTYPE svg PUBLIC "-//W3C//DTD SVG 20010904//EN"
 "http://www.w3.org/TR/2001/REC-SVG-20010904/DTD/svg10.dtd">
<svg version="1.0" xmlns="http://www.w3.org/2000/svg"
 width="2046.000000pt" height="1277.000000pt" viewBox="0 0 2046.000000 1277.000000"
 preserveAspectRatio="xMidYMid meet">

<g transform="translate(0.000000,1277.000000) scale(0.100000,-0.100000)"
fill="#000000" stroke="none">
<path d="M5750 12709 c-52 -4 -174 -12 -270 -18 -96 -6 -233 -15 -305 -21 -71
-5 -231 -16 -355 -25 -124 -8 -283 -20 -355 -25 -148 -11 -347 -25 -580 -41
-88 -5 -257 -17 -375 -25 -118 -8 -298 -19 -400 -25 -107 -6 -205 -17 -232
-25 -57 -19 -104 -62 -131 -122 l-20 -47 7 -2370 c3 -1303 9 -3433 13 -4732 5
-1832 3 -2372 -6 -2410 -7 -26 -19 -73 -26 -103 -24 -94 -45 -186 -45 -198 0
-9 93 -12 392 -10 l392 3 50 85 c47 78 52 92 61 180 l10 95 6560 0 6560 0 6
-75 c3 -41 11 -87 17 -102 13 -33 78 -134 106 -166 l19 -22 377 0 c207 0 379
3 382 6 3 3 -1 31 -8 62 -8 31 -21 82 -28 112 -8 30 -21 82 -31 115 -17 62
-17 144 -1 8450 0 429 -1 857 -4 950 -5 163 -6 172 -32 211 -53 82 -110 98
-408 114 -237 13 -624 38 -685 44 -27 3 -158 12 -290 21 -132 8 -296 19 -365
25 -69 5 -226 16 -350 25 -124 8 -283 20 -355 25 -71 6 -202 15 -290 20 -88 6
-214 14 -280 20 -142 11 -8578 11 -8725 -1z m11540 -3934 c-1 -1876 -5 -3610
-9 -3855 -3 -245 -4 -494 -1 -555 3 -60 4 -138 2 -171 -3 -61 -3 -62 -35 -65
-18 -2 -89 -3 -160 -1 l-127 3 6 25 c5 20 3 23 -10 18 -11 -4 -15 -13 -11 -25
9 -28 -14 -23 -27 6 -13 28 -16 29 -54 15 -25 -10 -26 -11 -9 -24 32 -23
-1396 -28 -7815 -24 l-6045 3 -7 705 c-8 946 -19 7340 -12 7351 3 5 2913 8
7161 7 l7155 -3 -2 -3410z"/>
<path d="M7756 11797 c3 -10 9 -15 12 -12 3 3 0 11 -7 18 -10 9 -11 8 -5 -6z"/>
<path d="M4275 11776 c-277 -69 -460 -170 -650 -361 -163 -163 -256 -314 -326
-526 -83 -255 -83 -557 1 -800 164 -474 538 -797 1030 -891 97 -18 378 -15
475 6 44 9 89 20 100 25 11 4 54 19 95 32 235 75 499 283 651 513 49 75 123
223 144 291 29 91 53 189 60 243 6 47 9 52 32 52 21 0 24 -4 19 -22 -4 -17 2
-30 27 -50 36 -32 49 -34 70 -13 13 13 16 13 27 0 20 -24 30 -17 24 14 -4 20
-1 30 10 34 8 3 18 2 21 -3 4 -6 1 -10 -4 -10 -6 0 -11 -9 -11 -20 0 -22 10
-26 26 -10 10 10 27 7 154 -32 34 -10 63 -21 125 -48 17 -7 39 -13 50 -12 11
1 14 -1 8 -4 -29 -13 -10 -21 49 -23 33 -1 67 -6 75 -12 7 -6 39 -17 71 -24
57 -13 156 -52 267 -105 33 -15 71 -31 85 -35 48 -14 119 -55 130 -74 5 -11
10 -29 10 -40 0 -11 12 -34 26 -51 26 -30 26 -32 7 -45 -17 -12 -19 -24 -16
-99 1 -47 -2 -107 -6 -133 -7 -36 -6 -52 4 -63 8 -10 13 -44 13 -100 -1 -47 2
-99 6 -116 7 -33 41 -72 53 -61 3 4 12 2 20 -4 9 -9 13 -8 13 0 0 6 5 11 11
11 7 0 8 -7 4 -17 -4 -10 -7 -26 -7 -35 0 -12 -10 -21 -31 -26 -50 -13 -47
-39 8 -63 25 -11 48 -26 51 -33 3 -8 15 -11 30 -8 13 2 31 -1 39 -8 17 -14 8
-26 -37 -49 -16 -8 -28 -18 -28 -23 0 -12 14 -10 28 4 8 8 15 8 24 1 15 -13
78 -20 93 -11 6 3 22 8 38 12 26 6 33 -1 27 -29 -1 -5 -4 -34 -6 -64 -4 -46
-3 -52 10 -42 13 11 13 7 4 -23 -6 -20 -17 -36 -25 -36 -7 0 -13 -6 -13 -14 0
-7 -12 -34 -26 -60 -14 -25 -24 -51 -22 -58 3 -7 14 8 26 33 27 55 87 136 146
194 24 25 48 55 52 67 4 12 13 28 20 36 8 7 14 22 14 33 0 10 4 19 8 19 5 0
15 11 22 25 15 28 30 33 30 10 0 -8 -4 -15 -10 -15 -5 0 -10 -7 -10 -16 0 -19
-60 -131 -104 -194 -17 -25 -40 -64 -51 -87 -11 -24 -23 -43 -27 -43 -5 0 -8
-7 -8 -15 0 -8 4 -15 9 -15 5 0 16 -3 25 -6 11 -4 16 -1 16 10 0 22 28 76 39
76 24 0 19 -61 -16 -220 -9 -41 -16 -79 -15 -84 2 -4 -3 -14 -9 -22 -16 -19
-5 -28 18 -16 11 6 25 7 33 2 18 -11 -12 -55 -84 -120 -27 -25 -72 -67 -98
-94 -27 -27 -51 -46 -54 -43 -6 6 12 54 35 97 5 9 12 31 16 50 4 19 11 40 15
45 4 6 10 24 12 40 3 17 3 24 1 18 -3 -7 -8 -13 -13 -13 -5 0 -7 -6 -4 -14 3
-7 -2 -16 -10 -19 -8 -3 -18 -22 -22 -41 -3 -20 -10 -33 -15 -31 -5 3 -11 -6
-15 -20 -3 -14 -11 -25 -16 -25 -6 0 -8 -6 -5 -14 3 -8 -5 -24 -19 -37 -13
-12 -24 -31 -24 -40 0 -12 -5 -16 -14 -13 -9 4 -16 -6 -21 -33 -7 -38 -129
-233 -146 -233 -5 0 -7 17 -4 38 2 20 10 77 16 126 14 111 7 242 -32 541 -16
127 -36 310 -44 408 -8 98 -17 182 -20 188 -10 15 -25 0 -25 -26 0 -13 -4 -26
-10 -30 -12 -7 -39 35 -46 71 -6 32 -12 44 -23 44 -13 0 -6 -48 10 -66 25 -29
49 -84 49 -113 0 -25 0 -25 -14 -5 -8 11 -18 32 -21 47 -4 14 -13 31 -21 38
-11 9 -14 7 -14 -10 0 -44 22 -110 35 -105 7 3 15 -2 18 -10 4 -10 1 -16 -8
-16 -8 0 -15 -5 -15 -11 0 -6 7 -8 16 -5 13 5 15 1 9 -21 -4 -16 -17 -86 -31
-158 -13 -71 -28 -150 -33 -175 -5 -25 -13 -67 -16 -95 -3 -27 -10 -63 -16
-80 -8 -27 -56 -268 -81 -407 -12 -63 -19 -69 -42 -36 -12 17 -14 38 -10 92 5
69 5 72 -31 126 -21 30 -54 87 -73 125 -32 62 -37 81 -40 160 -4 101 22 228
58 276 10 15 28 52 38 83 10 31 27 65 36 75 9 10 19 29 20 42 2 13 6 31 9 39
3 8 8 33 11 55 16 112 19 125 32 125 8 0 14 9 14 19 0 11 9 21 23 25 12 4 32
19 44 35 22 28 22 32 11 117 -8 63 -21 110 -45 160 -18 39 -33 78 -33 87 0 29
-18 19 -25 -14 -6 -27 -10 -30 -36 -27 -37 6 -45 -6 -25 -37 9 -13 16 -26 16
-28 0 -2 -24 -2 -52 -1 l-53 3 34 -17 c47 -23 55 -47 13 -39 -27 5 -31 3 -37
-21 -3 -15 -8 -35 -12 -46 -3 -12 -1 -16 6 -12 6 4 11 2 11 -4 0 -7 -9 -14
-19 -17 -11 -3 -24 -18 -30 -35 -8 -23 -15 -28 -31 -23 -13 4 -20 2 -21 -7 0
-7 -4 -5 -8 5 -6 17 -8 16 -20 -7 -11 -21 -12 -33 -1 -71 13 -45 33 -59 44
-29 3 8 10 12 16 9 13 -8 13 -25 0 -25 -6 0 -16 -5 -23 -12 -10 -9 -9 -19 6
-50 11 -21 23 -38 27 -38 20 0 66 22 77 36 18 24 57 0 46 -29 -4 -12 -7 -36
-6 -53 l1 -31 -36 12 c-21 8 -39 22 -44 36 -6 16 -11 20 -17 11 -8 -13 -111 4
-186 31 -22 8 -61 18 -87 21 -46 7 -48 6 -48 -16 0 -14 14 -37 35 -57 19 -18
35 -39 35 -47 0 -8 6 -14 13 -14 21 0 16 -79 -5 -86 -21 -6 -23 -39 -5 -75 11
-20 12 -33 1 -67 -7 -24 -8 -44 -3 -48 14 -8 11 -24 -5 -24 -8 0 -27 18 -43
40 -15 22 -32 40 -36 40 -5 0 -7 -3 -5 -7 2 -5 10 -21 18 -38 8 -16 17 -32 21
-35 3 -3 9 -27 12 -54 4 -38 1 -53 -13 -68 -17 -18 -18 -18 -34 17 -9 19 -23
35 -31 35 -17 0 -20 17 -4 22 12 4 -30 69 -48 76 -7 2 -13 -5 -13 -15 0 -10
-7 -29 -16 -41 -18 -26 -22 -19 109 -190 86 -113 82 -97 58 -212 -13 -60 -13
-174 -1 -202 6 -13 36 -41 67 -62 53 -37 57 -38 90 -27 37 14 128 13 155 -1
12 -6 28 -3 48 7 28 14 30 14 44 -7 24 -37 14 -97 -33 -191 -47 -94 -140 -201
-184 -213 -27 -6 -59 16 -212 146 -159 136 -199 162 -282 180 -55 13 -85 -1
-106 -48 -28 -64 -64 -184 -87 -287 -12 -55 -26 -113 -31 -129 -5 -16 -9 -46
-9 -67 0 -80 -19 -122 -72 -157 -26 -18 -48 -36 -48 -41 0 -5 20 -33 45 -62
28 -33 45 -63 45 -78 0 -53 39 -258 58 -309 43 -113 166 -292 242 -352 62 -49
137 -76 262 -95 133 -19 181 -44 211 -108 33 -68 9 -163 -52 -206 -17 -12 -31
-27 -31 -33 0 -29 -99 -96 -121 -82 -5 3 -9 1 -9 -4 0 -20 49 -22 79 -4 37 22
135 131 158 175 21 41 33 116 22 144 -7 19 -4 25 19 37 47 25 76 63 66 86 -9
20 -12 19 -57 -24 -26 -26 -51 -46 -56 -46 -5 0 -31 18 -57 40 -47 39 -69 45
-134 42 -14 -1 -50 7 -80 17 l-55 18 55 7 c118 15 160 40 193 114 15 32 37 64
49 70 38 20 190 52 243 52 45 0 55 -5 98 -43 29 -26 47 -51 47 -64 0 -13 10
-27 21 -34 17 -9 19 -13 8 -20 -12 -8 -12 -11 1 -19 8 -5 10 -10 4 -10 -5 0
-15 5 -21 11 -14 14 -34 3 -27 -14 5 -15 -21 -83 -36 -92 -12 -7 -14 -35 -2
-35 4 0 19 11 34 25 15 14 31 25 37 25 5 0 7 9 4 20 -4 14 0 20 11 20 10 0 16
9 16 25 0 14 2 25 5 25 9 0 45 -40 45 -50 0 -5 6 -7 13 -4 8 3 20 -2 27 -11 7
-8 19 -15 28 -15 8 0 24 -7 34 -17 17 -16 17 -18 -8 -62 l-25 -46 41 44 41 44
52 -21 c67 -28 85 -28 122 3 l30 25 -49 -15 c-28 -8 -55 -11 -60 -6 -6 5 -23
11 -37 15 -40 9 -149 73 -188 109 -18 18 -60 67 -92 109 -94 123 -89 121 -297
117 -97 -1 -199 -1 -227 0 -50 2 -132 27 -189 59 -32 18 -193 148 -236 192
-14 14 -41 39 -60 55 -20 17 -59 60 -88 95 -30 36 -61 72 -71 80 -9 8 -27 29
-39 47 l-23 32 46 27 c67 39 268 122 339 141 54 13 194 34 325 47 24 3 62 1
85 -3 46 -8 180 3 236 20 41 13 75 29 148 70 51 28 57 25 24 -13 -7 -9 -11
-22 -7 -27 3 -7 -2 -11 -14 -11 -18 0 -21 -6 -21 -39 0 -37 -2 -40 -46 -57
-39 -15 -47 -15 -56 -3 -8 11 -9 11 -4 -3 4 -13 -8 -23 -51 -43 -50 -23 -57
-24 -67 -9 -10 13 -14 13 -23 2 -6 -7 -11 -17 -10 -23 1 -5 -6 -11 -15 -13
-19 -4 -25 22 -8 33 6 4 8 11 4 16 -6 10 -132 4 -164 -8 -8 -3 -41 -6 -73 -8
-65 -3 -64 -2 -69 -30 -2 -16 2 -20 22 -18 14 2 42 11 64 20 37 16 39 16 53
-2 11 -14 17 -16 20 -7 5 14 33 17 33 2 0 -5 16 -12 35 -16 33 -6 71 -34 46
-34 -23 0 -10 -20 28 -42 22 -12 47 -35 56 -51 10 -17 23 -26 31 -23 17 7 19
-15 2 -32 -8 -8 -9 -12 -1 -12 6 0 13 6 16 13 9 26 37 -15 37 -54 0 -32 3 -39
20 -39 11 0 20 7 20 15 0 8 24 38 52 66 29 29 57 61 63 73 6 11 20 23 33 26
12 3 28 15 35 27 118 218 197 380 197 404 0 12 9 28 21 38 16 12 19 23 14 44
-4 15 -13 27 -21 27 -8 0 -14 5 -14 10 0 6 6 10 13 10 17 0 59 68 47 75 -6 3
-10 10 -10 16 0 16 22 10 41 -13 12 -13 19 -16 19 -8 0 7 3 10 6 7 4 -4 1 -13
-5 -21 -7 -8 -10 -20 -6 -26 3 -6 -1 -34 -9 -64 -9 -30 -16 -65 -16 -77 1 -13
-11 -73 -25 -134 -24 -103 -54 -278 -55 -317 0 -18 24 -25 33 -10 2 4 3 2 1
-4 -1 -7 8 -22 22 -35 13 -12 24 -27 24 -31 0 -12 50 -78 59 -78 4 0 7 15 7
33 0 25 -6 36 -20 43 -12 5 -26 24 -32 42 -5 18 -14 29 -19 25 -4 -5 -5 0 -2
10 4 10 7 30 7 43 0 13 3 23 8 23 35 -6 52 3 52 25 0 16 7 27 20 31 14 4 20
15 20 36 0 42 20 62 41 43 15 -13 19 -13 32 1 14 13 16 13 20 -3 2 -10 7 -2
11 21 5 20 12 37 16 37 5 0 12 10 16 23 4 12 11 25 16 28 6 4 13 28 16 55 l5
48 -46 -46 c-36 -36 -44 -51 -40 -70 5 -19 3 -21 -8 -10 -21 20 -29 14 -29
-23 0 -25 -4 -35 -15 -35 -12 0 -15 9 -12 33 5 41 15 59 29 51 7 -4 9 9 7 40
-4 49 7 64 14 19 3 -24 4 -23 6 7 0 20 -4 41 -10 47 -7 7 -7 13 -1 17 5 3 13
-5 16 -19 7 -27 36 -35 36 -10 0 17 16 20 24 6 4 -5 20 -7 37 -4 35 5 55 -13
38 -34 -6 -6 -9 -20 -6 -30 4 -16 5 -16 11 2 18 49 31 65 48 65 24 0 98 -71
98 -93 0 -10 5 -17 10 -17 6 0 10 -7 10 -15 0 -21 43 -149 51 -153 4 -2 17
-12 30 -23 12 -11 56 -36 96 -55 40 -20 73 -40 73 -46 0 -6 9 -8 20 -5 16 4
20 0 20 -19 0 -14 -7 -39 -16 -56 l-16 -31 68 -68 c38 -38 71 -65 75 -61 8 10
32 115 28 127 -2 6 0 35 5 66 5 44 12 58 27 62 21 6 26 -12 7 -31 -8 -8 -8
-12 -1 -12 7 0 11 -66 11 -207 0 -192 -1 -212 -24 -282 -13 -42 -24 -86 -24
-98 0 -21 65 -83 103 -96 9 -4 17 -14 17 -22 0 -9 5 -13 10 -10 6 3 10 -1 10
-9 0 -8 -4 -18 -10 -21 -16 -10 -12 -35 6 -35 14 0 15 -7 10 -39 -3 -23 -2
-42 4 -46 16 -10 12 -35 -6 -35 -23 0 -11 -24 14 -28 12 -2 22 -9 22 -17 0 -7
7 -25 15 -41 8 -16 12 -38 9 -50 -4 -15 1 -29 15 -43 12 -12 21 -30 21 -41 0
-11 9 -28 20 -37 13 -11 16 -19 8 -24 -8 -5 -8 -16 1 -39 6 -18 11 -47 11 -65
0 -20 8 -39 21 -51 23 -20 59 -89 59 -112 0 -8 6 -28 14 -45 8 -18 16 -69 19
-115 2 -45 9 -88 15 -94 7 -7 12 -19 12 -27 0 -9 36 -77 81 -151 98 -163 125
-216 194 -377 71 -163 144 -253 253 -313 143 -78 242 -80 311 -7 29 32 26 77
-17 234 -34 124 -76 207 -133 268 -46 48 -129 165 -129 182 0 6 -3 13 -8 15
-18 8 -76 93 -113 168 -44 87 -61 164 -34 154 8 -4 15 -12 15 -20 0 -8 5 -14
10 -14 6 0 10 8 10 19 0 12 -13 25 -36 36 -34 16 -35 18 -28 58 6 38 5 40 -10
28 -9 -7 -16 -10 -16 -6 0 4 -7 2 -15 -5 -9 -8 -15 -9 -15 -2 0 6 5 14 10 17
16 10 12 45 -6 45 -9 0 -34 14 -55 31 -29 23 -39 38 -39 60 0 16 -4 29 -9 29
-15 0 -23 42 -22 120 1 109 -8 163 -24 150 -10 -8 -15 -8 -20 1 -4 6 -1 15 6
20 8 5 12 21 11 42 -4 46 15 57 42 25 12 -13 32 -38 46 -54 22 -26 98 -98 210
-198 66 -59 130 -109 135 -104 3 3 -14 20 -37 38 -64 51 -178 161 -178 171 0
5 -7 17 -15 26 -25 31 -84 116 -112 163 -15 25 -44 68 -65 97 -21 29 -38 56
-38 61 0 5 -7 15 -15 22 -10 9 -15 9 -15 1 0 -6 -4 -11 -10 -11 -5 0 -10 7
-10 15 0 8 5 15 10 15 6 0 10 5 10 11 0 6 14 32 32 58 17 25 35 62 39 81 7 34
26 104 55 206 7 28 14 88 14 133 l0 82 -31 -18 c-29 -16 -79 -98 -79 -129 0
-20 -31 -74 -40 -69 -5 3 -3 22 5 43 7 20 23 70 35 109 l23 73 -19 80 c-11 44
-17 80 -13 80 4 0 10 -10 14 -22 31 -116 45 -128 45 -37 0 61 0 61 26 55 15
-4 49 -9 77 -12 70 -8 137 -40 234 -112 l82 -61 -19 -48 c-10 -26 -21 -63 -25
-82 l-7 -34 28 27 c40 38 147 86 217 97 96 16 121 14 155 -11 23 -17 35 -21
43 -13 8 8 18 7 37 -3 15 -8 44 -17 64 -20 70 -12 72 -41 7 -87 -52 -36 -88
-115 -96 -211 l-6 -71 49 51 c27 27 68 61 92 74 l43 24 -7 55 c-5 44 -4 53 7
49 8 -4 22 -9 31 -13 12 -5 17 0 20 17 6 42 39 32 83 -25 47 -59 72 -69 137
-50 95 27 138 32 154 16 13 -13 12 -20 -12 -60 -29 -51 -41 -134 -27 -198 10
-45 37 -59 48 -25 4 12 25 50 47 85 41 66 45 80 33 131 -9 39 17 69 49 58 12
-4 51 -9 87 -11 83 -6 132 17 232 106 38 34 84 68 103 76 19 8 34 19 34 24 0
6 11 11 25 11 14 0 48 16 76 35 35 23 63 35 88 36 55 1 82 6 123 23 47 20 108
73 108 95 0 9 6 28 14 43 8 14 17 54 21 87 4 34 11 61 16 61 5 0 9 13 9 29 0
29 14 41 49 41 10 0 23 11 31 24 7 13 21 27 32 29 11 3 17 10 13 16 -3 6 -1
11 4 11 14 0 14 -17 1 -25 -6 -4 -8 -11 -4 -16 12 -20 60 -30 111 -24 45 5 53
10 67 38 l15 32 -45 7 c-25 4 -48 9 -51 12 -3 3 -12 -1 -20 -9 -16 -17 -8 -39
10 -29 9 5 9 4 0 -6 -9 -10 -16 -8 -37 6 -33 25 -33 42 2 47 l27 4 -27 2 c-16
0 -28 5 -28 9 0 31 159 190 281 280 122 92 157 115 215 148 64 35 241 91 253
79 3 -4 -7 -18 -24 -31 -16 -13 -37 -30 -45 -37 -8 -7 -37 -26 -65 -42 -27
-16 -71 -44 -97 -62 -26 -18 -52 -33 -56 -33 -17 0 -82 -66 -82 -83 0 -10 11
-19 28 -23 15 -4 57 -22 95 -41 53 -26 72 -31 87 -23 30 16 31 13 9 -42 -12
-29 -39 -103 -60 -164 -30 -87 -56 -138 -123 -240 -96 -147 -124 -184 -137
-184 -6 0 -22 -12 -36 -26 -20 -20 -28 -23 -34 -12 -5 7 -9 10 -10 6 -2 -12
-5 -21 -12 -40 -4 -10 -9 -25 -12 -33 -2 -9 -13 -18 -22 -22 -10 -4 -31 -19
-46 -35 -16 -15 -34 -28 -42 -28 -7 0 -18 -7 -25 -15 -9 -11 -6 -24 16 -65 15
-28 36 -56 46 -61 23 -12 25 -54 3 -45 -10 3 -26 -6 -44 -26 -24 -27 -27 -35
-17 -51 9 -16 5 -24 -29 -54 -22 -19 -53 -44 -69 -56 -15 -12 -38 -33 -50 -47
-11 -14 -38 -42 -58 -63 -20 -21 -40 -47 -43 -58 -4 -10 -12 -25 -19 -32 -7
-7 -25 -32 -40 -55 -15 -24 -31 -40 -36 -37 -11 7 -154 -115 -145 -123 3 -3
13 2 23 11 10 10 24 17 30 17 6 0 14 9 17 20 6 19 25 28 25 12 0 -9 -69 -76
-124 -120 -30 -24 -43 -29 -53 -20 -9 7 -13 7 -13 -1 0 -6 -9 -11 -19 -11 -11
0 -29 -11 -40 -26 -11 -14 -22 -24 -24 -22 -6 4 -98 -56 -159 -105 -29 -24
-161 -97 -293 -162 -191 -96 -247 -120 -280 -119 -29 0 -83 21 -190 73 -198
95 -340 179 -519 304 -51 36 -267 209 -305 245 -20 19 -51 48 -70 65 l-34 32
23 -35 c105 -157 448 -514 588 -614 64 -45 307 -176 327 -176 2 0 34 -14 72
-32 81 -38 127 -40 198 -9 28 12 59 26 70 31 188 83 369 182 541 296 45 30 86
54 92 54 5 0 13 7 16 16 4 9 9 14 13 11 3 -4 -11 -26 -31 -51 -20 -24 -36 -51
-36 -60 0 -9 -6 -16 -13 -16 -19 0 -57 -43 -57 -64 0 -10 -15 -41 -34 -69 -18
-29 -41 -70 -51 -92 -49 -116 -123 -249 -172 -311 -68 -85 -79 -106 -90 -169
-12 -71 -6 -91 33 -122 46 -35 96 -41 256 -33 189 10 227 34 239 154 11 105
31 209 50 257 10 25 21 66 25 90 5 32 21 61 61 108 33 40 53 75 53 90 1 25 21
52 131 176 26 29 48 57 50 62 2 6 60 48 129 93 69 46 154 111 189 144 58 56
205 238 231 286 6 11 17 20 25 20 7 0 26 15 42 33 15 19 46 46 68 62 22 16 63
51 91 77 29 26 65 50 80 53 115 25 237 76 383 162 l94 55 60 -13 c33 -7 82
-23 109 -36 64 -31 84 -30 91 5 3 15 13 54 21 87 8 33 25 101 36 150 21 91 66
254 80 290 4 11 12 30 16 42 5 12 31 45 57 73 42 43 54 50 86 50 24 0 44 -7
53 -17 26 -29 78 -139 78 -164 0 -13 11 -46 25 -73 14 -27 25 -57 25 -67 0
-33 81 -247 100 -264 17 -16 22 -14 92 33 80 55 138 75 138 48 0 -9 -4 -16
-10 -16 -13 0 -50 -78 -50 -106 0 -13 -5 -35 -11 -51 -15 -37 -39 -169 -39
-215 0 -21 -5 -38 -10 -38 -6 0 -10 -6 -9 -12 4 -24 -23 -109 -52 -161 -5 -9
-12 -39 -15 -65 -3 -26 -9 -56 -14 -67 -4 -11 -20 -63 -35 -115 -15 -52 -40
-122 -55 -155 -28 -59 -50 -153 -50 -211 0 -43 40 -96 93 -122 35 -18 74 -25
174 -32 80 -6 165 -20 228 -37 107 -29 264 -42 299 -25 12 6 42 13 67 16 75 9
96 23 108 73 7 25 9 53 6 63 -6 18 -97 60 -130 60 -8 0 -28 13 -44 29 -16 16
-35 31 -43 34 -9 4 -8 6 3 6 21 1 31 25 16 40 -14 14 -30 15 -22 1 10 -16 -23
-42 -47 -38 -14 2 -24 11 -26 24 -2 12 -14 26 -28 33 -19 8 -24 16 -19 29 24
54 19 67 -35 91 -41 19 -53 21 -66 11 -13 -12 -28 -8 -30 8 0 4 -4 18 -8 32
-11 39 27 168 68 230 20 30 36 60 36 66 0 6 13 29 28 50 15 21 43 71 61 109
19 39 53 102 76 140 23 39 45 82 48 97 4 14 17 39 30 55 13 15 38 55 56 88 18
33 50 83 71 110 57 76 73 112 60 134 -5 11 -10 35 -10 54 0 26 5 36 20 40 11
3 20 14 20 25 0 10 14 38 30 60 17 23 30 48 30 55 0 20 -28 48 -82 86 -40 27
-54 31 -83 25 -30 -5 -35 -4 -35 13 0 12 -11 25 -26 31 -14 7 -23 16 -20 21 3
4 -8 20 -23 35 -21 20 -30 24 -34 14 -8 -18 -29 12 -22 31 6 14 -21 51 -37 51
-4 0 -8 -7 -8 -16 0 -14 -2 -14 -15 0 -8 8 -15 18 -15 21 0 4 7 5 15 1 36 -13
1 48 -61 108 -19 18 -34 37 -34 42 0 5 -20 29 -45 53 -25 24 -45 48 -45 53 0
4 -11 13 -25 18 -14 5 -37 28 -52 50 -25 35 -32 40 -58 35 -19 -3 -25 -2 -16
4 18 11 1 43 -39 71 -36 25 -39 50 -7 50 49 0 131 16 133 25 3 11 -103 81
-117 77 -5 -1 -9 2 -9 7 0 5 -15 15 -33 22 -23 8 -45 29 -71 70 -21 33 -41 59
-45 59 -13 0 -91 76 -91 88 0 18 67 27 182 25 82 -2 107 1 111 11 8 19 63 45
111 53 23 3 46 10 52 14 6 5 56 13 111 19 55 5 112 14 127 20 15 5 42 10 60
10 45 0 117 41 198 112 l67 59 105 -71 c57 -38 106 -73 108 -78 4 -11 88 -72
98 -72 11 0 38 44 46 74 4 16 2 26 -5 26 -6 0 -11 -7 -11 -16 0 -22 -40 -9
-67 24 -15 18 -19 31 -13 42 7 14 -8 29 -81 79 -49 34 -89 65 -89 69 0 5 5 13
11 19 15 15 3 63 -15 63 -8 0 -17 11 -20 24 -9 37 -60 86 -90 86 -30 0 -31 2
-11 41 29 55 -10 67 -65 19 -45 -38 -77 -39 -91 -3 -13 34 -37 52 -69 53 -29
0 -73 -27 -65 -40 3 -5 -4 -23 -16 -39 -21 -29 -22 -29 -50 -12 -16 10 -42 29
-58 43 -15 14 -32 27 -38 29 -33 12 -93 74 -93 95 0 13 -5 24 -10 24 -6 0 -8
11 -4 25 5 20 1 27 -20 37 -22 9 -26 17 -24 42 3 27 0 31 -19 29 -13 -2 -23 2
-23 7 0 6 5 10 11 10 7 0 9 10 5 25 -5 20 -1 27 23 39 28 15 41 40 71 139 6
20 15 37 20 37 4 0 30 -38 56 -84 46 -80 50 -84 66 -69 22 19 16 47 -17 83
-26 29 -40 76 -25 85 6 4 -16 32 -49 63 -57 56 -92 124 -70 138 17 10 9 49
-12 62 -15 10 -19 20 -15 38 4 13 2 33 -4 44 -5 11 -14 29 -20 40 -5 11 -10
26 -10 34 0 16 26 39 49 43 15 2 35 22 84 82 24 30 23 95 -3 121 -11 11 -20
25 -20 30 0 6 -7 10 -16 8 -15 -3 -24 23 -27 83 -1 9 -16 25 -34 34 -29 16
-33 23 -33 59 0 32 10 56 45 109 25 37 42 67 38 67 -14 0 -109 -58 -122 -74
-7 -9 -18 -16 -24 -16 -5 0 -2 9 9 21 11 12 14 23 8 27 -5 4 -20 23 -32 42
-12 19 -33 48 -47 65 -25 28 -27 29 -40 12 -9 -12 -15 -15 -20 -7 -5 8 -12 7
-23 -3 -10 -8 -36 -18 -59 -22 -49 -8 -58 -17 -66 -69 -5 -30 -2 -45 13 -64
11 -13 20 -40 20 -58 0 -32 -2 -34 -33 -34 -49 0 -77 -34 -77 -93 0 -37 6 -53
29 -79 16 -18 33 -30 37 -26 4 5 0 16 -9 26 -33 37 -17 91 33 112 27 11 33 10
50 -5 11 -10 20 -26 20 -36 0 -16 -4 -17 -25 -9 -27 10 -54 4 -57 -14 -4 -30
-2 -96 3 -96 3 0 6 -6 6 -14 0 -10 -9 -13 -32 -9 -20 3 -45 -1 -65 -12 -33
-17 -34 -17 -51 4 -24 29 -32 94 -20 156 20 104 31 146 41 164 17 32 13 43
-10 31 -14 -7 -20 -7 -20 0 0 26 -29 4 -64 -51 -44 -67 -64 -81 -78 -56 -7 13
-23 17 -63 17 -53 0 -55 -1 -56 -27 -2 -65 3 -109 17 -130 16 -25 5 -70 -21
-79 -19 -8 -57 -69 -60 -97 -4 -32 -4 -33 -15 -17 -9 13 -11 13 -20 0 -5 -8
-10 -10 -10 -4 0 6 9 23 21 38 20 25 14 37 -8 15 -6 -6 -21 -16 -34 -23 -27
-13 -40 -43 -15 -33 13 5 16 -1 16 -33 0 -22 -5 -40 -11 -40 -5 0 -8 4 -5 9 4
5 3 17 0 26 -9 24 -25 -3 -18 -30 5 -19 4 -18 -14 2 -17 20 -21 21 -32 8 -10
-13 -10 -19 4 -34 16 -17 15 -19 -9 -35 -14 -9 -36 -21 -50 -26 -16 -6 -23
-15 -19 -24 4 -11 -10 -23 -47 -41 -29 -14 -60 -25 -70 -25 -9 0 -19 -6 -22
-14 -3 -8 -27 -18 -52 -22 -34 -5 -43 -9 -34 -16 10 -7 7 -8 -9 -5 -15 4 -25
0 -29 -9 -3 -8 -9 -11 -14 -8 -6 3 -16 1 -24 -6 -18 -15 -123 4 -172 31 -20
11 -42 18 -49 15 -8 -3 -14 -1 -14 4 0 6 -9 10 -19 10 -11 0 -23 5 -26 10 -4
6 -14 8 -23 6 -10 -3 -28 1 -42 9 -48 27 -92 45 -100 40 -4 -2 -26 4 -48 15
-23 11 -47 20 -55 20 -7 0 -17 3 -21 7 -3 4 -12 8 -19 9 -7 1 -50 15 -97 31
-96 32 -140 33 -140 2 0 -14 12 -25 38 -35 20 -8 46 -19 57 -24 11 -4 29 -11
40 -13 11 -3 45 -15 75 -27 30 -11 93 -34 140 -50 118 -40 172 -59 195 -69 69
-30 126 -51 139 -51 27 0 28 -21 2 -61 -29 -44 -39 -47 -58 -20 -10 15 -32 20
-108 26 -138 10 -401 17 -427 10 -25 -6 -31 -30 -10 -38 10 -4 10 -6 0 -6 -7
-1 -13 -11 -14 -23 0 -13 -3 -17 -6 -10 -2 6 -9 12 -15 12 -6 0 -8 -7 -4 -15
3 -8 1 -15 -5 -15 -6 0 -7 -5 -3 -12 5 -7 3 -8 -5 -4 -8 5 -23 -3 -39 -21 -15
-17 -52 -52 -82 -78 -30 -27 -46 -46 -36 -42 15 6 17 5 7 -7 -6 -8 -27 -17
-46 -20 -19 -4 -35 -10 -35 -14 0 -12 248 -253 262 -256 7 -1 23 -10 36 -21
30 -27 135 -55 202 -55 63 0 130 -16 130 -31 0 -16 -43 -48 -65 -49 -11 0 -29
-7 -39 -15 -11 -8 -30 -15 -43 -15 -13 0 -23 -4 -23 -8 0 -5 -33 -18 -72 -31
-40 -12 -80 -26 -90 -31 -9 -5 -39 -12 -67 -16 -28 -4 -54 -11 -57 -15 -12
-19 -69 -7 -147 32 -69 35 -103 62 -217 173 -159 156 -169 163 -325 247 -246
133 -226 125 -287 110 -100 -26 -238 -89 -238 -109 0 -10 48 -87 115 -184 58
-85 174 -223 216 -256 l28 -23 50 25 c32 17 76 28 121 32 68 7 91 16 70 29 -5
3 -10 18 -10 32 0 20 -4 24 -19 20 -26 -6 -61 19 -61 44 0 13 -7 19 -22 19
-30 0 -84 35 -69 44 6 4 24 1 39 -7 34 -16 72 -6 73 20 0 15 2 15 7 3 4 -8 18
-28 32 -43 25 -29 27 -32 29 -67 2 -29 21 -25 21 5 0 41 33 25 42 -20 2 -14
11 -20 28 -20 16 0 24 -5 22 -13 -1 -8 7 -16 18 -19 11 -3 20 -12 20 -19 0 -8
14 -17 30 -20 27 -6 43 -24 20 -24 -16 0 39 -49 57 -50 34 -4 43 0 43 20 0 25
8 25 40 0 14 -11 21 -20 15 -19 -34 5 -43 -2 -41 -31 1 -32 20 -52 41 -44 6 3
24 -9 41 -25 16 -17 39 -31 52 -31 12 0 21 -6 20 -12 -4 -16 79 -18 104 -4 13
8 21 6 32 -9 10 -14 17 -16 27 -9 8 6 29 9 47 8 17 -1 131 -2 253 -3 205 -1
269 -10 167 -24 -24 -3 -74 -15 -113 -27 -38 -12 -83 -25 -100 -30 -16 -5 -75
-25 -130 -45 -55 -20 -109 -39 -120 -42 -11 -3 -31 -14 -45 -23 -14 -10 -35
-20 -47 -24 -12 -4 -44 -22 -70 -40 -45 -30 -108 -65 -210 -114 -23 -11 -75
-28 -115 -37 -138 -31 -203 -48 -244 -66 -44 -18 -50 -31 -74 -154 -33 -161
-80 -539 -80 -635 l0 -35 208 -4 c161 -2 209 -6 215 -17 4 -7 15 -10 23 -7 14
5 14 3 3 -16 -8 -11 -21 -21 -29 -21 -12 0 -12 -2 -1 -9 10 -6 11 -13 2 -29
-6 -11 -11 -39 -11 -61 0 -22 -4 -43 -10 -46 -6 -3 -10 4 -10 16 0 18 -3 20
-12 11 -17 -17 -48 -15 -48 4 0 11 6 15 20 11 11 -3 18 -1 14 4 -3 5 -1 9 4 9
6 0 13 7 16 16 4 12 2 15 -9 10 -8 -3 -15 0 -15 7 0 8 -3 8 -9 -2 -5 -7 -13
-11 -17 -8 -5 3 -25 -6 -44 -19 -21 -14 -28 -24 -18 -24 9 0 18 -7 22 -15 4
-10 -3 -17 -22 -21 -15 -3 -35 -9 -44 -15 -10 -5 -24 -9 -32 -9 -8 0 -16 -6
-19 -13 -6 -17 -110 -88 -167 -114 -85 -39 -115 -51 -205 -83 -101 -36 -147
-46 -172 -35 -15 6 -11 10 17 20 l35 13 -57 -1 c-69 -2 -78 15 -14 25 25 3 50
9 56 13 5 3 31 10 58 15 46 8 158 43 197 61 11 5 33 13 49 19 16 6 26 13 23
16 -3 3 -38 -6 -78 -19 -41 -14 -91 -28 -113 -32 -21 -3 -46 -10 -55 -16 -53
-29 -392 -43 -504 -21 -68 15 -158 53 -204 88 -54 41 -37 11 27 -49 52 -47 73
-77 55 -77 -7 0 -124 100 -160 137 -33 34 -41 63 -17 63 13 0 13 2 0 18 -8 9
-19 26 -23 37 -7 18 -9 18 -12 2 -3 -9 -9 -15 -14 -11 -6 4 -6 11 2 20 8 10 8
25 -1 62 -15 56 -7 112 18 135 10 9 40 29 67 44 42 22 61 26 117 25 36 -1 92
-10 123 -20 50 -17 61 -18 84 -6 14 8 38 14 53 14 15 0 30 5 33 10 3 6 13 10
21 10 9 0 37 19 65 43 27 23 59 45 71 49 16 4 9 6 -23 7 -26 1 -53 -5 -65 -14
-10 -8 -27 -15 -37 -15 -10 0 -35 -9 -57 -20 -51 -26 -197 -29 -207 -4 -9 24
16 61 51 75 17 7 54 34 83 61 28 26 59 48 67 48 9 0 22 10 30 23 19 30 32 117
17 117 -6 0 -11 -6 -11 -14 0 -7 -7 -19 -15 -26 -8 -7 -15 -23 -15 -36 0 -27
-34 -52 -150 -110 -30 -16 -63 -34 -72 -42 -20 -17 -38 -8 -38 19 0 24 -12 24
-35 -1 -10 -11 -27 -20 -37 -20 -11 0 -29 -5 -40 -11 -12 -7 -38 -8 -66 -4
-60 9 -107 58 -117 121 -7 47 -10 49 -47 35 -95 -38 -170 -55 -245 -55 -45 -1
-80 0 -78 2 2 3 -10 16 -26 30 -17 14 -36 37 -42 51 -10 26 -11 26 -14 4 -3
-13 -10 -23 -16 -23 -7 0 -6 -4 3 -10 13 -9 13 -10 0 -10 -11 -1 -11 -3 3 -11
10 -6 21 -8 24 -5 7 7 43 -38 43 -53 0 -16 -85 -14 -99 3 -7 8 -9 25 -5 42 5
20 2 30 -11 41 -18 12 -18 13 3 13 19 0 22 5 22 45 0 39 4 47 25 57 30 14 32
41 5 68 -20 20 -20 20 1 20 21 0 22 5 8 60 -3 10 2 14 15 12 15 -3 18 1 13 17
-3 12 -1 21 3 21 5 0 12 16 16 35 3 20 12 35 20 35 17 0 37 37 30 57 -3 8 3
28 15 44 11 16 18 36 15 44 -3 9 1 15 10 15 10 0 14 -6 10 -15 -3 -9 0 -15 10
-15 9 0 14 6 11 13 -2 6 0 24 4 40 8 30 -4 37 -20 10 -9 -16 -10 -15 -11 6 0
29 22 49 88 80 44 21 51 28 65 75 19 60 21 80 7 71 -11 -7 -14 20 -10 102 1
52 -17 123 -32 123 -4 0 -8 -13 -8 -29 0 -44 -18 -47 -55 -11 -42 41 -47 61
-36 149 14 109 -2 144 -35 75 -13 -26 -22 -34 -36 -31 -11 3 -18 0 -18 -9 0
-17 -12 -18 -28 -2 -9 9 -12 8 -12 -5 0 -14 -6 -16 -27 -11 -16 4 -32 11 -38
15 -14 13 -43 11 -48 -3 -3 -7 -3 3 0 23 3 20 1 39 -5 43 -13 8 -70 -57 -78
-89 -3 -14 -10 -25 -14 -25 -4 0 -10 -9 -13 -20 -5 -18 -46 -43 -56 -34 -2 2
8 26 23 54 l27 50 -23 1 c-13 0 -48 0 -78 0 -40 -1 -51 1 -40 9 12 8 11 10 -8
10 -13 0 -33 5 -44 11 -15 8 -19 8 -14 0 11 -18 -31 -13 -76 9 -49 23 -58 20
-29 -11 43 -47 15 -57 -89 -32 -36 9 -63 4 -77 -13 -9 -13 -28 -14 -110 -9
-54 4 -111 13 -127 21 -16 8 -35 14 -43 14 -8 0 -11 4 -8 10 3 5 -12 29 -34
52 -22 24 -47 52 -55 63 -41 54 15 -116 84 -254 28 -57 48 -106 45 -109 -8 -8
-75 70 -81 95 -3 12 -12 24 -18 26 -7 3 -16 18 -19 34 -4 15 -14 37 -22 48
-14 17 -17 18 -26 5 -9 -12 -10 -12 -5 3 8 26 -4 67 -19 67 -7 0 -15 7 -19 15
-3 8 -12 15 -20 15 -26 0 -49 46 -42 82 20 112 20 107 -7 117 -14 5 -34 7 -46
4 -30 -8 -27 -33 4 -33 22 0 25 -4 25 -40 0 -32 -3 -38 -16 -33 -14 5 -15 3
-5 -15 13 -24 15 -79 3 -86 -4 -2 -14 15 -21 40 -11 36 -11 47 -1 60 10 11 10
18 1 27 -19 19 -27 -5 -34 -91 -6 -77 -34 -176 -62 -218 -16 -24 -44 -27 -61
-5 -9 11 -13 10 -27 -3 -9 -9 -14 -23 -11 -31 4 -8 2 -15 -4 -15 -5 0 -12 -13
-15 -30 -4 -16 -12 -30 -18 -30 -9 0 -10 24 -4 93 4 50 9 121 10 156 2 35 9
75 16 87 9 17 9 27 1 36 -12 14 1 92 18 113 15 19 16 87 1 93 -8 3 -11 0 -7
-6 8 -13 -21 -62 -37 -62 -6 0 -32 -18 -58 -40 -26 -22 -52 -40 -58 -40 -6 0
-15 -9 -21 -20 -12 -22 -30 -18 -30 6 0 8 7 14 15 14 9 0 18 8 22 18 3 9 13
25 21 35 19 22 8 35 -14 16 -14 -11 -18 -11 -29 4 -6 9 -15 13 -19 9 -4 -4
-12 1 -18 11 -6 12 -14 15 -21 9 -19 -15 -68 -21 -64 -8 2 6 -2 17 -10 24 -10
10 -10 16 0 27 6 7 14 11 16 9 2 -2 15 6 29 16 30 24 52 26 52 5 0 -9 14 -22
30 -29 17 -7 28 -14 26 -17 -2 -2 16 -2 40 0 32 2 44 7 40 16 -3 9 8 16 37 20
l41 7 -27 15 c-15 8 -25 18 -22 23 3 5 -7 17 -22 27 -15 10 -32 23 -36 30 -6
10 -13 11 -30 2 -12 -7 -24 -15 -27 -18 -16 -20 -39 -31 -44 -22 -4 5 12 20
34 32 22 13 46 35 52 51 7 15 16 28 20 28 13 0 9 18 -8 35 -9 9 -23 14 -30 11
-8 -3 -14 -1 -14 4 0 19 78 11 92 -9 16 -22 54 -36 63 -21 3 5 -9 24 -27 41
-33 30 -33 30 -8 29 62 -5 89 31 34 44 -13 4 -24 13 -24 20 0 17 56 26 70 12
7 -7 10 -6 10 2 0 7 -4 12 -10 12 -18 0 -25 3 -62 26 -21 13 -44 24 -52 24 -8
0 -17 4 -20 8 -2 4 -40 25 -83 47 -43 21 -79 42 -81 47 -2 4 -11 8 -20 9 -9 0
-12 3 -5 5 10 5 80 -21 125 -46 11 -6 19 -6 23 0 10 16 60 12 109 -10 59 -25
72 -8 24 34 -62 55 -79 67 -88 61 -5 -3 -11 -1 -14 3 -6 10 9 26 62 68 55 44
65 76 58 170 -8 96 -46 262 -78 337 -12 29 -39 78 -60 110 -21 32 -38 60 -38
62 0 2 8 1 19 -2 10 -3 22 0 25 6 4 6 19 11 33 11 15 0 34 7 44 16 9 8 20 11
23 6 9 -14 -40 -54 -68 -56 -30 -1 -32 -8 -10 -27 9 -7 30 -37 46 -66 28 -50
38 -61 102 -107 35 -25 109 -139 126 -194 11 -36 11 -52 1 -90 -15 -56 -28
-73 -41 -52 -17 27 -12 -23 6 -59 12 -24 20 -30 35 -26 13 5 36 -5 69 -29 55
-40 67 -43 95 -22 15 11 17 17 7 28 -15 19 -4 30 18 18 23 -12 30 -4 30 36 0
28 4 33 26 36 15 2 32 11 38 21 9 15 6 22 -16 41 -33 26 -34 39 -8 108 17 44
18 55 7 63 -12 8 -12 16 0 45 7 19 16 43 20 54 4 14 12 3 29 -45 13 -35 24
-72 24 -81 0 -22 7 -22 54 -3 20 8 36 22 36 31 0 24 25 11 28 -15 5 -32 -13
-49 -46 -43 -27 5 -27 5 -7 -15 11 -11 26 -18 33 -15 17 6 15 -48 -4 -73 -16
-21 -18 -131 -2 -141 4 -3 8 6 8 20 0 13 6 27 13 29 9 4 8 8 -3 16 -13 10 -12
13 6 29 12 9 30 42 39 72 10 30 24 65 32 76 21 33 21 171 0 211 -9 18 -17 48
-17 67 0 38 -64 130 -99 141 -10 3 -22 12 -25 20 -3 9 -18 15 -35 15 -23 0
-29 4 -24 16 4 10 -1 17 -16 21 -11 3 -21 12 -21 19 0 8 -3 14 -7 14 -13 1
-80 64 -92 87 -6 13 -23 26 -36 29 -14 3 -25 10 -25 14 0 14 30 40 46 40 8 0
14 5 14 10 0 6 -6 10 -14 10 -8 0 -18 -4 -21 -10 -3 -5 -11 -10 -16 -10 -6 0
-3 10 5 22 21 30 22 55 1 38 -12 -10 -15 -10 -15 3 0 10 11 17 28 19 19 2 31
12 42 35 8 18 18 33 23 33 4 0 1 -13 -8 -30 -15 -28 -14 -30 3 -30 10 0 28 9
40 20 12 11 26 20 32 20 5 0 10 5 10 10 0 6 -6 10 -14 10 -8 0 -18 -4 -21 -10
-10 -16 -22 -11 -28 11 -3 12 -10 18 -16 15 -5 -4 -12 -2 -16 4 -3 5 12 28 34
49 44 43 44 42 41 116 -1 47 -44 155 -61 155 -4 0 -16 8 -25 18 -17 16 -18 16
-11 0 4 -13 1 -18 -9 -18 -11 0 -15 6 -11 20 3 13 0 20 -9 20 -8 0 -14 7 -14
15 0 8 -4 15 -10 15 -5 0 -10 -4 -10 -10 0 -23 -31 -8 -47 23 -14 26 -17 53
-15 140 2 87 0 107 -11 107 -27 0 -35 -25 -36 -122 -1 -72 2 -105 14 -129 23
-44 14 -56 -47 -64 -62 -8 -76 -15 -140 -66 -85 -67 -140 -73 -195 -22 -16 16
-56 42 -87 58 -72 37 -103 67 -112 108 -7 34 -44 97 -57 97 -5 0 1 -13 13 -30
11 -16 23 -45 25 -65 3 -20 12 -50 21 -66 8 -17 13 -37 10 -45 -3 -9 1 -14 12
-14 10 0 23 -5 30 -12 6 -6 26 -11 43 -10 22 0 39 -6 51 -21 11 -12 28 -33 39
-45 11 -13 19 -25 17 -27 -6 -6 -141 34 -185 55 -32 15 -43 26 -43 43 0 15
-11 29 -31 41 -39 23 -69 72 -69 114 0 25 -10 42 -43 75 -24 23 -49 57 -56 75
-7 17 -18 32 -23 32 -5 0 -8 -3 -6 -7 2 -5 29 -59 61 -120 31 -62 57 -118 57
-124 0 -7 -11 -9 -27 -6 l-28 5 25 -16 c30 -20 90 -80 90 -92 0 -11 -33 -19
-114 -26 -84 -9 -66 -26 31 -29 70 -3 78 -6 70 -30 -8 -20 -80 -20 -135 -1
-22 8 -43 12 -46 9 -3 -4 -6 -1 -6 6 0 7 -6 11 -14 8 -8 -3 -21 2 -30 12 -24
26 -19 35 9 17 22 -15 25 -15 25 -1 0 9 -8 19 -17 22 -10 4 -24 15 -31 25 -7
10 -19 18 -26 18 -7 0 -28 18 -47 40 -19 22 -39 40 -46 40 -7 0 -1 -12 12 -26
13 -14 27 -38 30 -54 18 -80 155 -229 214 -231 56 -2 115 3 138 12 35 13 53 1
53 -36 0 -42 38 -98 75 -108 17 -5 41 -12 55 -16 18 -4 29 -20 43 -56 23 -61
33 -75 75 -92 17 -7 32 -20 32 -28 0 -8 10 -20 23 -26 12 -6 38 -28 57 -49 34
-36 60 -43 60 -14 0 8 10 14 26 14 44 0 169 -22 179 -31 5 -5 15 -9 23 -9 12
0 91 -34 111 -47 6 -4 -40 -43 -50 -43 -4 0 -20 5 -36 11 -15 7 -42 11 -60 10
-17 -1 -49 5 -70 14 -34 13 -107 27 -214 42 -20 3 -39 0 -43 -5 -4 -6 -21 -7
-48 -1 -25 6 -45 6 -50 1 -6 -6 -25 -6 -46 -1 -84 19 -161 9 -194 -27 -65 -71
-69 -78 -44 -68 7 3 37 -4 67 -15 59 -23 79 -26 79 -12 0 10 -68 44 -89 44 -9
0 -6 7 8 18 20 17 26 17 50 4 21 -10 31 -11 40 -2 8 8 11 8 11 -1 0 -7 7 -12
16 -12 8 0 12 -4 9 -10 -3 -5 -15 -10 -26 -10 -12 0 -19 -5 -17 -11 4 -11 47
-19 114 -19 51 0 97 -52 133 -147 41 -113 48 -170 25 -214 -10 -19 -17 -38
-15 -44 1 -5 -1 -7 -5 -3 -4 4 -13 3 -20 -3 -8 -7 -14 -7 -19 1 -3 5 1 10 9
10 15 0 21 23 16 60 -3 27 -17 32 -48 16 -44 -23 -46 -9 -7 44 44 59 49 99 8
53 -16 -16 -33 -28 -39 -26 -7 2 -20 -6 -30 -19 -40 -48 -52 -53 -74 -27 -11
13 -27 39 -35 58 -13 29 -19 33 -45 29 -16 -2 -31 0 -33 6 -10 28 -21 -11 -19
-65 2 -32 0 -59 -5 -59 -4 0 -18 18 -30 39 -20 35 -26 38 -63 38 -22 0 -43 -4
-46 -9 -9 -15 -25 3 -19 22 3 10 1 21 -5 25 -5 3 -10 1 -10 -5 0 -6 -4 -8 -10
-5 -15 9 -13 0 20 -76 31 -73 24 -96 -9 -30 -24 47 -90 101 -123 101 -13 0
-33 7 -44 15 -12 8 -24 12 -27 9 -3 -3 -11 -3 -18 2 -7 4 -25 8 -41 8 -20 1
-28 -4 -28 -16 0 -37 -63 -44 -102 -11 -9 8 -20 29 -24 47 -3 17 -15 44 -26
59 -25 35 -247 217 -265 217 -7 0 -32 -6 -55 -14 -24 -7 -63 -12 -88 -9 -25 2
-67 4 -95 6 -44 2 -55 7 -95 46 -62 61 -152 101 -228 104 l-61 1 -12 46 c-117
441 -424 776 -849 926 -132 46 -258 64 -444 63 -141 -1 -187 -5 -261 -23z
m533 -32 c159 -32 298 -88 427 -172 101 -65 150 -105 240 -198 98 -101 154
-178 215 -298 82 -159 116 -281 137 -493 5 -59 5 -62 -16 -60 -11 1 -21 8 -21
15 0 12 -3 12 -16 2 -13 -11 -16 -10 -21 9 -5 20 -6 20 -19 4 -13 -17 -15 -17
-29 2 -13 17 -14 21 -2 30 24 17 40 107 27 153 -22 83 -85 132 -170 132 -57 0
-93 -15 -132 -57 -52 -54 -61 -118 -28 -192 31 -68 81 -99 171 -106 88 -7 193
-83 139 -100 -11 -4 -20 -13 -20 -21 0 -8 -1 -14 -3 -14 -12 0 -178 22 -199
26 -19 4 -28 12 -28 25 0 14 -7 19 -25 19 -26 0 -29 -7 -39 -91 -4 -39 -2 -48
12 -51 24 -7 42 1 42 18 0 17 -4 17 101 4 119 -15 126 -17 132 -40 6 -24 42
-27 51 -4 3 9 6 28 6 42 0 67 23 87 69 62 15 -8 18 -18 14 -57 -6 -61 -53
-255 -64 -267 -5 -6 -9 -16 -9 -24 0 -23 -66 -158 -116 -235 -172 -269 -468
-482 -766 -552 -35 -8 -82 -19 -106 -25 -56 -13 -409 -13 -417 0 -3 6 -18 10
-34 10 -39 0 -192 46 -275 83 -605 268 -909 955 -699 1577 158 466 589 815
1063 860 111 11 316 3 408 -16z m3324 -404 c46 -49 48 -74 9 -120 l-29 -35 -6
50 c-4 28 -11 64 -17 80 -20 57 -21 65 -9 65 7 0 30 -18 52 -40z m-802 -84 c0
-3 -4 -8 -10 -11 -5 -3 -10 -1 -10 4 0 6 5 11 10 11 6 0 10 -2 10 -4z m173
-138 c23 -13 45 -27 48 -31 3 -5 25 -11 48 -14 46 -6 56 -29 16 -39 -47 -12
-97 5 -137 48 -58 62 -49 75 25 36z m-80 -74 c15 -25 22 -44 15 -42 -14 5 -62
88 -50 88 4 0 19 -21 35 -46z m327 -11 c0 -16 -54 -83 -66 -83 -7 0 -18 10
-25 21 -12 23 0 39 32 39 9 0 22 7 29 15 13 16 30 20 30 8z m-173 -65 c7 -6
13 -15 13 -21 0 -5 11 -25 26 -44 27 -35 66 -44 106 -22 27 15 35 3 14 -20
-53 -59 -122 -47 -162 28 -32 60 -47 84 -59 94 -5 5 3 6 20 2 16 -4 36 -11 42
-17z m-1964 -179 c57 -29 76 -110 37 -157 -28 -34 -115 -57 -104 -27 7 18 -7
20 -23 4 -18 -18 -59 14 -73 55 -28 87 78 168 163 125z m285 -152 c4 -35 18
-34 30 2 10 28 12 29 37 18 24 -11 26 -16 22 -50 -5 -36 -4 -38 16 -33 12 3
25 6 30 6 4 0 7 6 7 14 0 12 5 12 30 3 44 -17 54 -61 11 -50 -10 2 -38 -5 -62
-17 -28 -15 -44 -19 -47 -11 -7 21 -30 11 -42 -19 -17 -40 -33 -39 -25 3 6 26
5 30 -6 20 -7 -7 -16 -13 -20 -13 -9 0 -18 115 -12 140 7 28 27 20 31 -13z
m228 -121 c20 -20 18 -26 -10 -26 -33 0 -42 -17 -21 -40 20 -22 35 -18 35 11
0 22 11 24 28 7 16 -16 15 -28 -2 -28 -7 0 -16 -9 -19 -20 -3 -13 -14 -20 -30
-20 -13 0 -36 9 -50 20 -28 23 -37 25 -37 10 0 -11 10 -25 43 -62 10 -11 16
-22 13 -26 -4 -3 -31 20 -61 51 -51 53 -53 56 -26 51 22 -5 32 -1 44 17 9 12
14 26 11 31 -3 4 7 8 21 8 20 0 26 4 21 15 -7 19 21 20 40 1z m7678 -20 c-3
-9 -10 -16 -15 -16 -5 0 -4 9 3 20 14 22 21 20 12 -4z m-5847 -28 c15 -20 4
-108 -13 -108 -8 0 -14 -7 -14 -15 0 -8 -4 -15 -10 -15 -5 0 -10 -7 -10 -15 0
-8 5 -15 10 -15 6 0 22 -11 35 -24 l25 -25 57 21 c32 11 73 29 91 40 38 23 41
16 8 -26 -25 -33 -121 -86 -155 -86 -14 0 -27 13 -40 38 -11 21 -38 62 -60 90
-23 28 -41 56 -41 61 0 14 82 90 96 91 6 0 16 -6 21 -12z m-1344 -31 c11 -4
17 -17 17 -41 0 -23 -5 -36 -17 -40 -10 -3 -23 -8 -29 -11 -7 -4 -11 12 -13
45 -1 52 6 80 18 63 3 -5 14 -12 24 -16z m6747 9 c0 -18 -51 -76 -67 -76 -7 0
1 19 20 44 33 47 47 56 47 32z m397 8 c-3 -3 -12 -4 -19 -1 -8 3 -5 6 6 6 11
1 17 -2 13 -5z m-7617 -74 c0 -5 -2 -10 -4 -10 -3 0 -8 5 -11 10 -3 6 -1 10 4
10 6 0 11 -4 11 -10z m1916 -37 c-11 -11 -17 4 -9 23 7 18 8 18 11 1 2 -10 1
-21 -2 -24z m315 -9 c-1 -21 -5 -41 -7 -43 -9 -9 -22 15 -27 51 -5 34 -4 37
16 34 19 -2 21 -8 18 -42z m-2401 26 c0 -5 -7 -7 -15 -4 -8 4 -15 8 -15 10 0
2 7 4 15 4 8 0 15 -4 15 -10z m2470 -85 c0 -70 -15 -115 -38 -115 -14 0 -14 2
2 80 3 14 8 42 11 63 9 60 25 43 25 -28z m5307 23 c-3 -7 -5 -2 -5 12 0 14 2
19 5 13 2 -7 2 -19 0 -25z m-7460 16 c-3 -3 -12 -4 -19 -1 -8 3 -5 6 6 6 11 1
17 -2 13 -5z m7350 -26 c-3 -8 -6 -5 -6 6 -1 11 2 17 5 13 3 -3 4 -12 1 -19z
m-7262 -8 c11 -5 45 -19 75 -31 83 -32 116 -49 102 -49 -17 0 -214 79 -227 92
-10 9 11 4 50 -12z m407 -42 c12 -2 23 -9 26 -15 3 -12 -3 -16 -47 -29 -11 -4
-10 -9 5 -25 16 -18 26 -20 76 -14 42 5 63 3 74 -6 11 -9 20 -10 33 -2 24 15
100 9 114 -10 7 -8 19 -17 27 -20 10 -4 7 -6 -7 -6 -24 -1 -33 -21 -9 -21 24
0 40 -31 39 -73 -1 -37 8 -56 29 -57 4 0 1 20 -6 45 -12 38 -12 45 0 45 12 0
39 -70 36 -95 0 -9 75 -49 143 -75 77 -31 137 -61 132 -67 -4 -3 -17 -1 -30 5
-12 6 -44 20 -72 32 -27 12 -66 30 -86 41 -20 10 -42 19 -47 19 -6 0 -35 14
-64 32 -29 17 -61 31 -70 30 -10 0 -18 3 -18 7 0 9 -148 71 -168 71 -7 0 -12
5 -12 10 0 6 -7 10 -17 10 -9 0 -39 11 -67 24 -29 14 -65 28 -80 32 -26 6 -28
8 -12 20 16 12 16 13 -1 22 -16 10 -16 12 10 32 15 12 27 29 27 39 0 23 14 37
18 18 2 -9 13 -17 24 -19z m6925 -26 c-7 -24 -16 -40 -20 -36 -4 4 -7 0 -7
-10 0 -15 -45 -45 -54 -35 -2 2 -6 21 -10 41 -6 35 -5 38 21 44 15 4 39 15 53
25 14 9 26 16 27 15 1 -1 -4 -21 -10 -44z m-6807 -35 c0 -11 -41 2 -58 18 -11
10 -7 10 22 1 20 -6 36 -15 36 -19z m6310 19 c0 -16 -18 -31 -27 -22 -8 8 5
36 17 36 5 0 10 -6 10 -14z m-6600 -6 c8 -5 12 -11 9 -14 -7 -8 -49 5 -49 15
0 12 21 11 40 -1z m66 -32 c4 -5 -4 -8 -17 -6 -12 1 -24 8 -26 15 -5 14 34 6
43 -9z m6704 2 c0 -5 -4 -10 -10 -10 -5 0 -10 5 -10 10 0 6 5 10 10 10 6 0 10
-4 10 -10z m-40 -45 c0 -8 -7 -15 -15 -15 -19 0 -19 -14 1 -34 18 -18 30 -20
39 -6 11 17 24 11 31 -15 5 -22 11 -25 51 -25 l46 0 -7 -41 c-4 -24 -3 -38 3
-35 10 7 21 -16 21 -46 0 -16 -5 -19 -23 -14 -19 4 -25 0 -34 -24 -6 -17 -18
-30 -27 -30 -18 0 -21 -15 -6 -25 17 -11 11 -25 -11 -25 -19 0 -20 -2 -8 -16
12 -15 10 -16 -21 -9 -19 4 -46 14 -60 23 l-25 17 23 3 c13 2 30 -2 38 -8 8
-8 14 -8 14 -2 0 13 -25 22 -63 22 -18 0 -37 4 -43 8 -20 13 -44 70 -44 106 0
40 26 161 41 188 12 23 79 26 79 3z m497 -147 c-3 -8 -6 -5 -6 6 -1 11 2 17 5
13 3 -3 4 -12 1 -19z m-220 -4 c-3 -3 -12 -4 -19 -1 -8 3 -5 6 6 6 11 1 17 -2
13 -5z m-21 -22 c6 -4 13 -23 17 -43 4 -28 1 -42 -14 -58 -11 -12 -24 -19 -29
-16 -5 3 -11 1 -15 -5 -3 -5 -11 -10 -17 -10 -10 0 -7 34 7 90 2 8 4 23 4 33
1 17 27 23 47 9z m74 4 c0 -2 -7 -7 -16 -10 -8 -3 -12 -2 -9 4 6 10 25 14 25
6z m41 -43 c-9 -16 -10 -15 -11 8 0 14 3 29 8 33 12 12 14 -22 3 -41z m-211
-63 c0 -5 -2 -10 -4 -10 -3 0 -8 5 -11 10 -3 6 -1 10 4 10 6 0 11 -4 11 -10z
m160 -11 c0 -34 -67 -109 -98 -109 -16 0 -13 55 3 55 6 1 25 15 44 33 34 33
51 40 51 21z m-1220 -260 c0 -24 -26 -53 -40 -44 -15 9 -12 26 7 47 21 24 33
23 33 -3z m1320 -18 c0 -11 -4 -23 -10 -26 -5 -3 -10 -2 -10 4 0 5 -3 16 -6
25 -4 11 -1 16 10 16 9 0 16 -8 16 -19z m-6227 -12 c16 -7 27 -19 27 -30 0
-23 -13 -24 -34 -4 -22 22 -32 18 -11 -5 22 -25 15 -35 -20 -26 -17 4 -26 13
-24 24 3 32 -1 42 -16 42 -20 0 -19 -30 1 -58 17 -24 14 -39 -5 -27 -6 3 -11
13 -11 21 0 8 -7 14 -15 14 -8 0 -15 6 -15 14 0 8 -5 16 -12 18 -6 2 -9 9 -6
14 9 14 108 16 141 3z m4883 -62 c5 -23 2 -34 -11 -43 -14 -11 -15 -16 -6 -28
6 -7 10 -20 9 -27 -2 -8 5 -13 15 -13 10 1 17 -5 17 -17 0 -12 -5 -16 -14 -13
-11 4 -13 -3 -9 -38 2 -24 10 -53 16 -66 8 -18 8 -28 -1 -43 -7 -10 -8 -19 -3
-19 4 0 16 -20 25 -44 9 -25 23 -49 30 -55 7 -6 12 -24 11 -40 -1 -17 4 -32
11 -35 20 -8 36 30 29 65 -4 19 -3 29 5 29 6 0 8 -4 5 -10 -3 -5 1 -20 9 -32
8 -13 19 -52 24 -88 5 -36 21 -98 36 -137 42 -116 31 -189 -16 -103 -12 23
-18 56 -18 97 0 39 -4 63 -11 63 -6 0 -9 7 -5 15 3 8 -2 31 -12 50 -17 35 -37
45 -44 23 -3 -7 -11 1 -20 17 -8 17 -31 60 -51 96 -68 126 -98 314 -65 405 14
39 34 35 44 -9z m1325 10 c-13 -13 -26 -3 -16 12 3 6 11 8 17 5 6 -4 6 -10 -1
-17z m59 15 c0 -5 10 -8 23 -8 15 1 23 -5 25 -19 3 -29 -11 -46 -41 -49 -24
-3 -25 -1 -24 40 1 24 5 44 10 44 4 0 7 -4 7 -8z m120 -3 c0 -9 -31 -21 -37
-15 -3 3 -3 9 1 14 6 10 36 12 36 1z m-1460 -29 c0 -5 -4 -10 -10 -10 -5 0
-10 5 -10 10 0 6 5 10 10 10 6 0 10 -4 10 -10z m1300 -63 c0 -2 -10 -12 -21
-23 -22 -19 -22 -19 -10 4 10 18 31 31 31 19z m-7015 -17 c-3 -5 -10 -10 -16
-10 -5 0 -9 5 -9 10 0 6 7 10 16 10 8 0 12 -4 9 -10z m25 -20 c0 -5 -8 -10
-17 -10 -15 0 -16 2 -3 10 19 12 20 12 20 0z m717 -16 c-3 -3 -12 -4 -19 -1
-8 3 -5 6 6 6 11 1 17 -2 13 -5z m-300 -91 c-3 -10 -5 -4 -5 12 0 17 2 24 5
18 2 -7 2 -21 0 -30z m-407 -3 c0 -5 -4 -10 -10 -10 -5 0 -10 5 -10 10 0 6 5
10 10 10 6 0 10 -4 10 -10z m5675 0 c3 -5 1 -10 -4 -10 -6 0 -11 5 -11 10 0 6
2 10 4 10 3 0 8 -4 11 -10z m1255 -27 c0 -5 -5 -15 -10 -23 -8 -12 -10 -11
-10 8 0 12 5 22 10 22 6 0 10 -3 10 -7z m-6290 -7 c0 -3 -4 -8 -10 -11 -5 -3
-10 -1 -10 4 0 6 5 11 10 11 6 0 10 -2 10 -4z m5125 -105 c-3 -2 -9 9 -15 25
-6 16 -17 32 -23 36 -8 5 -6 12 8 22 19 14 20 12 27 -32 4 -25 5 -48 3 -51z
m-5243 41 c-19 -5 -36 13 -27 28 5 8 12 6 25 -7 14 -15 15 -19 2 -21z m6394 1
c-10 -10 -19 5 -10 18 6 11 8 11 12 0 2 -7 1 -15 -2 -18z m-7008 -3 c-7 -11
-17 -20 -22 -20 -4 0 -3 6 3 13 6 8 8 17 4 20 -3 4 1 7 10 7 15 0 15 -3 5 -20z
m862 10 c8 -5 12 -12 8 -15 -10 -10 -49 5 -43 16 8 11 16 11 35 -1z m3283 -2
c31 -12 35 -26 11 -35 -10 -4 -22 1 -29 10 -7 10 -17 17 -23 17 -6 0 -13 4
-16 8 -7 12 24 12 57 0z m115 -47 c26 -23 29 -41 5 -41 -23 0 -53 29 -46 46 7
18 13 17 41 -5z m227 -31 c9 -16 22 -30 31 -30 8 0 25 -11 37 -25 12 -14 35
-26 50 -27 24 -2 27 -6 22 -25 -3 -12 -1 -25 5 -28 6 -3 7 -17 4 -31 -4 -14
-2 -24 5 -24 6 0 11 -6 11 -14 0 -9 -7 -12 -20 -9 -18 5 -29 24 -34 62 -2 9
-14 17 -29 19 -15 2 -27 10 -27 17 0 13 -33 36 -71 51 -9 3 -23 21 -32 39 -15
32 -15 35 1 44 26 15 30 14 47 -19z m1312 -2 c-3 -8 -6 -5 -6 6 -1 11 2 17 5
13 3 -3 4 -12 1 -19z m-4967 2 c0 -20 -92 -27 -108 -7 -8 10 2 13 49 14 32 0
59 -2 59 -7z m6490 -86 c8 -5 31 -16 51 -24 21 -8 51 -27 68 -43 26 -23 31
-34 31 -72 0 -49 -25 -85 -59 -85 -11 0 -23 -5 -27 -11 -7 -13 -146 -5 -167 8
-7 4 -21 9 -32 10 -27 4 -65 24 -65 35 0 9 -49 59 -88 91 -17 13 -21 23 -16
45 11 44 20 47 63 19 22 -15 54 -27 71 -27 38 0 86 24 100 49 10 20 44 23 70
5z m-3208 -21 c23 -21 23 -43 0 -43 -18 0 -52 33 -52 50 0 16 32 12 52 -7z
m3458 -2 c0 -6 -4 -13 -10 -16 -5 -3 -10 1 -10 9 0 9 5 16 10 16 6 0 10 -4 10
-9z m-6246 -32 c-36 -38 -93 -74 -102 -64 -7 6 11 23 58 55 12 8 29 20 38 27
32 23 36 13 6 -18z m2866 21 c0 -5 -7 -10 -16 -10 -8 0 -12 5 -9 10 3 6 10 10
16 10 5 0 9 -4 9 -10z m45 -31 c4 -6 13 -8 19 -6 9 4 11 -3 8 -19 -4 -24 -20
-30 -72 -25 -25 3 -50 18 -50 30 0 9 48 28 72 30 9 1 20 -4 23 -10z m-2825
-14 c0 -8 -4 -15 -10 -15 -5 0 -10 7 -10 15 0 8 5 15 10 15 6 0 10 -7 10 -15z
m3295 -75 c-3 -5 -11 -10 -16 -10 -6 0 -7 5 -4 10 3 6 11 10 16 10 6 0 7 -4 4
-10z m-3280 -40 c0 -9 -9 -15 -22 -14 -13 0 -23 -5 -23 -13 0 -7 -7 -13 -15
-13 -12 0 -11 6 7 30 23 31 53 37 53 10z m3225 10 c0 -5 -4 -10 -10 -10 -5 0
-10 5 -10 10 0 6 5 10 10 10 6 0 10 -4 10 -10z m140 -34 c0 -3 -4 -8 -10 -11
-5 -3 -10 -1 -10 4 0 6 5 11 10 11 6 0 10 -2 10 -4z m39 -29 c0 -9 -2 -9 -5 0
-3 7 -13 9 -22 6 -14 -4 -14 -3 -2 5 16 12 30 7 29 -11z m191 3 c0 -5 -4 -10
-10 -10 -5 0 -10 5 -10 10 0 6 5 10 10 10 6 0 10 -4 10 -10z m-3983 -152 c-2
-13 -4 -5 -4 17 -1 22 1 32 4 23 2 -10 2 -28 0 -40z m-1440 -50 c-3 -8 -6 -5
-6 6 -1 11 2 17 5 13 3 -3 4 -12 1 -19z m70 -40 c-3 -8 -6 -5 -6 6 -1 11 2 17
5 13 3 -3 4 -12 1 -19z m47 -20 c-4 -13 -13 -32 -21 -43 -13 -19 -14 -18 -7
10 6 29 21 55 31 55 2 0 1 -10 -3 -22z m2956 -8 c0 -5 -9 -6 -20 -3 -11 3 -20
9 -20 13 0 5 9 6 20 3 11 -3 20 -9 20 -13z m-2920 -55 c7 -14 17 -25 22 -25 5
0 13 -11 18 -25 5 -14 14 -25 20 -25 5 0 10 -7 10 -15 0 -8 -4 -15 -10 -15 -5
0 -10 5 -10 10 0 6 -6 10 -14 10 -8 0 -16 10 -18 23 -2 12 -9 21 -16 20 -6 -2
-12 6 -12 16 0 11 -4 23 -10 26 -12 7 -13 25 -2 25 5 0 15 -11 22 -25z m2952
-17 c-10 -22 -11 -21 -11 12 -1 26 2 31 11 22 8 -8 8 -17 0 -34z m-1738 17
c-4 -8 -13 -15 -21 -15 -13 0 -13 3 -3 15 7 8 16 15 21 15 5 0 6 -7 3 -15z
m5132 -10 c10 -8 15 -15 9 -15 -5 0 -27 -4 -48 -9 l-39 -9 23 24 c26 28 29 29
55 9z m-6216 -37 c-1 -30 -16 -41 -40 -28 l-23 13 29 12 c16 8 30 14 32 14 1
1 2 -5 2 -11z m6138 -35 c-2 -11 -14 -19 -28 -21 -52 -6 -68 -12 -73 -32 -4
-15 0 -20 14 -20 10 0 19 -5 19 -11 0 -7 -9 -9 -22 -6 -22 6 -22 6 -4 -8 11
-8 24 -15 30 -15 5 0 -1 -11 -14 -25 -13 -14 -29 -25 -37 -25 -7 0 -13 11 -13
25 0 14 -4 25 -10 25 -5 0 -10 -6 -10 -12 0 -10 -3 -9 -9 1 -5 7 -13 11 -19 7
-5 -3 -13 2 -16 11 -8 19 19 45 69 67 17 7 39 23 49 35 24 27 79 30 74 4z
m-6257 -95 c13 -32 38 -36 93 -13 42 18 45 14 13 -17 -31 -31 -83 -51 -132
-52 l-40 -1 2 65 c4 90 9 101 33 70 11 -14 25 -37 31 -52z m1936 19 c15 -13
63 -47 105 -75 84 -56 120 -64 159 -34 26 20 88 47 93 41 1 -2 15 -26 31 -54
23 -43 27 -60 26 -120 -1 -38 -6 -86 -12 -107 -5 -21 -7 -43 -4 -48 5 -8 -11
-52 -36 -102 -5 -10 -9 -29 -9 -42 0 -14 -8 -31 -18 -38 -10 -7 -22 -26 -26
-41 -10 -41 -35 -30 -56 24 -19 52 -113 199 -154 242 -40 43 -106 132 -106
145 0 5 -20 28 -44 49 -25 22 -53 56 -62 77 -17 34 -17 40 -4 64 14 23 41 38
77 41 6 1 24 -10 40 -22z m-847 -63 c0 -3 -11 -19 -25 -36 -27 -32 -35 -16 -9
20 14 20 34 30 34 16z m-646 -19 c3 -8 1 -15 -4 -15 -6 0 -10 7 -10 15 0 8 2
15 4 15 2 0 6 -7 10 -15z m-167 -77 c-3 -8 -6 -5 -6 6 -1 11 2 17 5 13 3 -3 4
-12 1 -19z m718 6 c-9 -9 -19 -13 -23 -10 -3 4 0 11 8 16 24 15 33 11 15 -6z
m870 -5 c11 -16 1 -19 -13 -3 -7 8 -8 14 -3 14 5 0 13 -5 16 -11z m-862 -36
c-3 -7 -10 -13 -15 -13 -6 0 -7 -7 -4 -16 4 -10 1 -14 -6 -11 -7 2 -12 11 -10
21 2 9 -2 16 -8 16 -5 0 -10 -3 -11 -7 0 -5 -2 -23 -5 -40 -2 -18 1 -33 6 -33
6 0 10 6 11 13 0 9 2 9 6 0 5 -14 -24 -49 -33 -40 -4 3 -6 22 -6 43 0 25 -3
33 -9 23 -5 -8 -9 -9 -9 -3 0 26 39 61 68 61 21 0 29 -4 25 -14z m897 -3 c0
-5 -2 -10 -4 -10 -3 0 -8 5 -11 10 -3 6 -1 10 4 10 6 0 11 -4 11 -10z m5254
-25 c3 -8 1 -15 -4 -15 -6 0 -10 7 -10 15 0 8 2 15 4 15 2 0 6 -7 10 -15z
m-6230 -101 c0 -19 -6 -39 -13 -44 -8 -4 -11 -12 -7 -18 10 -16 -13 -25 -29
-12 -10 8 -11 19 -3 48 6 20 15 43 20 49 6 7 7 21 4 30 -7 17 -6 17 10 1 11
-10 18 -33 18 -54z m1076 -136 c18 -35 62 -111 97 -171 34 -59 63 -116 63
-127 0 -20 -37 -66 -46 -57 -3 2 0 16 5 30 10 25 9 26 -20 23 -25 -3 -36 4
-77 54 -89 107 -179 240 -163 240 5 0 11 -6 14 -14 9 -22 170 -137 179 -128 5
5 -16 52 -47 106 -59 104 -60 106 -46 106 4 0 23 -28 41 -62z m-2345 25 c45
-23 137 -93 165 -127 14 -17 33 -37 43 -46 10 -8 31 -25 45 -37 16 -14 21 -23
13 -23 -8 0 -23 7 -33 17 -10 9 -18 11 -18 5 0 -6 12 -20 26 -31 20 -15 30
-18 40 -11 7 6 15 7 18 2 3 -5 -3 -15 -13 -24 -10 -9 -20 -21 -22 -27 -6 -17
-79 -31 -162 -32 -104 -1 -219 -38 -198 -63 6 -7 12 -23 14 -37 3 -20 11 -25
40 -27 39 -3 49 -16 20 -25 -23 -8 -69 -26 -163 -66 -41 -17 -77 -31 -79 -31
-8 0 9 141 25 202 9 35 20 88 25 118 6 30 14 64 19 75 5 11 12 36 15 55 8 41
42 118 64 143 17 21 62 17 116 -10z m6165 3 c0 -27 -28 -43 -36 -21 -6 16 12
45 27 45 5 0 9 -11 9 -24z m-4924 -2 c-3 -9 -6 -21 -6 -27 0 -7 -8 -17 -18
-24 -17 -10 -18 -8 -14 15 5 30 20 52 34 52 6 0 7 -7 4 -16z m-58 -24 c-1 -16
-5 -30 -10 -30 -9 0 -11 22 -2 44 9 24 13 19 12 -14z m1872 -20 c0 -5 -2 -10
-4 -10 -3 0 -8 5 -11 10 -3 6 -1 10 4 10 6 0 11 -4 11 -10z m4714 -6 c9 -24 7
-28 -9 -14 -17 14 -20 30 -6 30 5 0 12 -7 15 -16z m96 -95 c0 -10 -4 -19 -9
-19 -12 0 -23 29 -15 41 8 14 24 0 24 -22z m74 -70 c10 -17 15 -33 12 -36 -9
-9 -43 25 -49 48 -8 30 17 22 37 -12z m-7340 -68 c-5 -3 -11 -24 -12 -45 -4
-42 -25 -72 -42 -61 -7 4 -4 20 8 43 11 20 25 50 33 65 7 16 15 23 17 17 3 -7
1 -15 -4 -19z m143 -37 c-12 -12 -25 7 -19 28 l5 22 10 -22 c6 -12 7 -25 4
-28z m2496 12 c16 -24 18 -57 7 -111 -10 -47 -14 -54 -26 -44 -11 9 -17 9 -29
-1 -12 -10 -15 -10 -15 3 0 17 -34 32 -49 23 -5 -3 -11 7 -14 22 -4 20 1 34
20 54 14 15 30 25 34 23 4 -3 10 9 14 25 6 26 10 30 28 24 12 -4 25 -12 30
-18z m-2418 -15 c-3 -6 -11 -11 -17 -11 -6 0 -6 6 2 15 14 17 26 13 15 -4z
m2283 -20 c-14 -5 -31 15 -23 29 5 8 11 6 20 -7 9 -11 10 -19 3 -22z m-2765
-68 c-7 -2 -19 -2 -25 0 -7 3 -2 5 12 5 14 0 19 -2 13 -5z m64 1 c-3 -3 -12
-4 -19 -1 -8 3 -5 6 6 6 11 1 17 -2 13 -5z m420 -96 c-3 -7 -5 -2 -5 12 0 14
2 19 5 13 2 -7 2 -19 0 -25z m2640 -94 c52 -26 70 -40 61 -50 -5 -4 -99 45
-108 56 -3 4 -12 10 -20 13 -12 4 -12 6 -1 6 8 1 38 -11 68 -25z m-2997 -1 c0
-11 -3 -14 -8 -7 -4 6 -14 14 -22 17 -10 4 -8 6 8 6 15 1 22 -5 22 -16z m1741
-83 c5 0 9 -10 8 -22 0 -13 -3 -17 -6 -10 -2 6 -9 10 -14 6 -5 -3 -8 16 -7 43
1 36 2 40 5 16 2 -18 8 -33 14 -33z m1373 24 c3 -8 2 -12 -4 -9 -6 3 -10 10
-10 16 0 14 7 11 14 -7z m6 -54 c8 -5 11 -12 8 -15 -4 -4 -17 0 -30 9 -24 17
-5 23 22 6z m-1374 -51 c8 -9 17 -53 21 -108 7 -111 24 -143 67 -123 29 13 33
10 13 -10 -23 -24 -67 -122 -75 -168 -8 -41 -9 -43 -17 -20 -4 14 -16 30 -25
37 -15 11 -17 32 -15 195 2 101 4 185 5 188 1 3 2 16 1 30 0 15 2 19 6 10 3
-8 12 -22 19 -31z m-2298 -281 c55 -54 105 -98 110 -98 5 0 12 -9 15 -20 3
-11 9 -20 14 -18 9 2 83 -41 83 -49 0 -2 -4 -12 -9 -22 -13 -23 0 -41 41 -61
27 -13 32 -21 30 -43 -1 -15 2 -27 8 -27 5 0 10 -15 10 -34 0 -26 -5 -35 -22
-40 -19 -5 -21 -8 -8 -16 11 -7 11 -10 2 -10 -7 0 -11 -4 -7 -10 3 -5 -13 -15
-37 -22 -32 -9 -42 -10 -46 0 -2 7 -10 12 -18 12 -16 0 -60 36 -117 95 -58 61
-71 76 -104 125 -39 58 -97 186 -92 206 1 5 -3 23 -10 39 -13 31 -31 125 -31
160 0 16 9 11 44 -25 23 -25 88 -89 144 -142z m4352 92 c0 -17 -7 -20 -50 -20
-27 0 -50 5 -50 10 0 6 6 10 13 11 32 1 70 8 75 13 9 10 12 7 12 -14z m-1571
-165 c-1 -57 -12 -105 -21 -90 -13 23 -19 125 -8 146 17 31 30 7 29 -56z m-82
3 c-3 -8 -6 -5 -6 6 -1 11 2 17 5 13 3 -3 4 -12 1 -19z m3097 -4 c23 -9 9 -24
-21 -24 -21 0 -24 2 -13 15 14 17 13 17 34 9z m-267 -166 c-3 -8 -6 -5 -6 6
-1 11 2 17 5 13 3 -3 4 -12 1 -19z m-2782 -37 c-3 -12 -10 -21 -15 -21 -4 0
-3 11 3 24 14 29 22 27 12 -3z m2805 -115 c0 -19 -27 -39 -40 -31 -8 5 -6 13
7 25 22 23 33 25 33 6z m-2832 -87 c1 -26 -2 -38 -9 -33 -6 3 -9 15 -6 25 3
10 1 22 -4 25 -14 8 -11 24 4 24 9 0 14 -14 15 -41z m5 -79 c3 -11 1 -23 -4
-26 -5 -3 -9 -1 -9 5 0 5 -3 16 -6 25 -3 9 -2 16 4 16 5 0 12 -9 15 -20z m17
-90 c0 -5 -4 -10 -10 -10 -5 0 -10 5 -10 10 0 6 5 10 10 10 6 0 10 -4 10 -10z
m30 -200 c0 -5 -2 -10 -4 -10 -3 0 -8 5 -11 10 -3 6 -1 10 4 10 6 0 11 -4 11
-10z m4 -136 c9 -24 4 -24 -18 -3 -16 16 -17 19 -4 19 9 0 19 -7 22 -16z
m5192 -9 c10 -8 14 -15 7 -15 -19 0 -43 11 -43 21 0 13 14 11 36 -6z m-3008
-34 c-7 -12 -16 -21 -21 -21 -8 0 -2 14 16 38 16 20 20 6 5 -17z m-2042 -193
c3 -10 12 -25 20 -33 12 -11 12 -15 2 -15 -7 0 -25 21 -40 45 -23 38 -24 43
-7 32 10 -6 22 -20 25 -29z m1459 -74 c-69 -57 -191 -144 -203 -144 -28 0 -4
21 103 93 110 75 156 98 100 51z"/>
<path d="M4385 11683 c-76 -19 -113 -64 -100 -122 7 -33 47 -71 74 -71 32 0
101 -33 106 -51 8 -26 0 -36 -35 -44 -39 -9 -67 1 -73 26 -4 15 -12 20 -29 17
-18 -2 -24 -10 -26 -34 -9 -95 193 -101 229 -7 25 66 -16 127 -95 138 -57 9
-95 38 -80 62 6 11 26 19 46 21 29 2 36 -1 41 -17 5 -22 36 -28 54 -10 15 15
3 58 -21 74 -26 17 -65 25 -91 18z"/>
<path d="M4641 11676 c-6 -7 -14 -34 -17 -60 -6 -42 -5 -46 14 -46 15 0 27 13
42 47 11 26 18 53 16 60 -7 17 -40 17 -55 -1z"/>
<path d="M3954 11529 c-95 -49 -98 -51 -89 -78 5 -16 12 -20 29 -15 20 5 27
-2 54 -53 17 -32 41 -77 54 -101 19 -35 21 -44 9 -51 -9 -6 -11 -18 -7 -35 l6
-26 58 31 c72 39 74 42 66 63 -5 12 -14 16 -29 12 -18 -5 -25 0 -35 25 -11 26
-11 33 3 46 14 14 21 12 75 -21 64 -39 87 -43 115 -22 15 12 17 18 7 35 -6 12
-15 19 -21 15 -16 -9 -112 57 -100 69 22 22 12 83 -18 116 -40 43 -78 41 -177
-10z m120 -32 c12 -9 17 -23 14 -47 -2 -27 -9 -36 -35 -47 l-33 -13 -21 45
c-24 51 -25 48 16 63 40 14 39 14 59 -1z"/>
<path d="M5005 11550 c-3 -5 -13 -10 -21 -10 -15 0 -58 -45 -81 -84 -7 -12
-12 -48 -13 -81 0 -53 4 -65 31 -98 34 -42 86 -72 141 -82 32 -6 40 -3 63 20
30 34 31 46 4 63 -18 11 -24 11 -39 -3 -24 -22 -69 -13 -104 20 -21 19 -26 33
-26 70 0 52 21 99 49 115 30 15 99 12 126 -6 18 -12 25 -25 25 -48 0 -21 7
-35 21 -44 29 -18 49 1 49 47 0 41 -37 85 -97 115 -35 18 -118 22 -128 6z"/>
<path d="M3645 11273 c-82 -94 -90 -120 -36 -115 24 2 40 -4 56 -20 13 -13 48
-43 78 -68 47 -38 55 -50 54 -75 -4 -56 26 -40 112 60 l82 95 -28 25 c-46 40
-81 26 -67 -28 3 -16 -3 -30 -23 -49 l-28 -27 -27 24 c-16 13 -28 28 -28 32 0
5 14 26 32 47 30 37 31 39 13 52 -26 19 -26 19 -59 -21 -16 -19 -35 -35 -41
-35 -14 0 -55 42 -55 56 0 21 45 53 67 48 15 -4 25 0 33 15 9 18 7 25 -17 46
-15 13 -31 25 -35 25 -3 0 -41 -39 -83 -87z"/>
<path d="M5380 11335 c-6 -8 -9 -22 -6 -32 5 -14 -9 -29 -56 -63 -34 -25 -66
-50 -72 -56 -24 -23 -53 -33 -63 -23 -11 11 -53 3 -53 -9 0 -6 70 -105 86
-121 11 -12 35 25 29 46 -4 18 1 27 27 43 l33 20 26 -28 c14 -15 34 -40 44
-56 l19 -29 -29 -23 c-31 -25 -55 -31 -55 -14 0 15 -26 12 -40 -4 -9 -12 -3
-25 30 -70 24 -31 46 -56 50 -56 15 0 32 29 26 47 -3 14 17 34 84 85 49 37 92
63 95 57 8 -13 39 -11 53 3 14 14 -55 118 -79 118 -22 0 -44 -26 -29 -35 17
-10 12 -21 -24 -49 l-34 -25 -41 54 c-23 30 -41 58 -41 63 0 4 13 18 30 30 25
19 33 20 49 10 15 -9 23 -9 35 1 13 11 11 19 -20 66 -40 59 -57 71 -74 50z"/>
<path d="M4440 11280 c-8 -5 -28 -10 -45 -10 -16 0 -61 -11 -98 -24 -189 -67
-363 -215 -449 -383 -26 -50 -50 -108 -54 -130 -3 -21 -12 -44 -18 -52 -15
-19 -21 -285 -7 -338 6 -24 16 -62 22 -85 17 -70 87 -201 144 -269 110 -134
235 -213 425 -270 30 -9 95 -14 190 -14 122 1 157 5 220 24 103 32 186 74 267
135 65 50 175 169 194 211 5 11 18 34 28 51 31 52 71 180 82 266 30 236 -47
476 -209 645 -124 131 -244 194 -455 242 -59 14 -217 14 -237 1z m310 -44
c114 -37 146 -51 219 -99 133 -87 204 -169 278 -319 52 -106 73 -202 73 -337
-1 -75 -6 -130 -15 -156 -8 -22 -15 -47 -15 -55 0 -8 -22 -60 -50 -115 -58
-119 -154 -230 -258 -298 -70 -47 -151 -87 -174 -87 -8 0 -18 -4 -24 -8 -17
-16 -208 -44 -259 -39 -82 9 -179 26 -200 36 -11 5 -41 16 -67 26 -45 15 -139
72 -188 111 -288 235 -370 632 -197 958 45 85 147 202 225 260 91 66 191 110
317 136 67 14 273 5 335 -14z"/>
<path d="M4440 11224 c-42 -8 -133 -35 -167 -50 -17 -8 -34 -14 -38 -14 -14 0
-152 -94 -188 -128 -188 -179 -269 -439 -215 -697 78 -381 457 -636 843 -567
242 43 439 193 543 412 55 118 67 173 67 325 -1 116 -4 139 -28 210 -78 225
-252 400 -477 479 -61 22 -98 27 -195 31 -66 2 -131 2 -145 -1z m7 -226 c17
-4 43 -22 57 -39 26 -30 26 -33 26 -198 l0 -167 -31 -31 c-24 -26 -41 -33 -87
-38 -31 -4 -63 -8 -69 -10 -10 -3 -13 -43 -13 -155 l0 -150 -85 0 c-83 0 -85
1 -91 26 -9 35 1 747 10 763 9 14 230 14 283 -1z m394 2 c19 -5 48 -24 65 -41
28 -30 29 -33 32 -150 l4 -119 -81 0 -81 0 0 95 c0 78 -3 97 -16 102 -9 3 -20
0 -25 -8 -13 -20 -12 -536 1 -544 6 -4 17 -1 25 5 11 9 15 37 15 110 0 53 2
99 4 101 2 2 38 3 80 1 l76 -4 0 -116 c0 -99 -3 -122 -20 -150 -39 -64 -161
-91 -260 -56 -57 20 -88 48 -100 94 -11 41 -13 296 -4 480 l7 125 38 37 c24
23 51 38 71 41 65 8 134 7 169 -3z m-543 -862 c10 -10 17 -10 31 -1 23 15 41
0 42 -36 1 -24 2 -23 11 7 7 21 17 32 29 32 16 0 19 -9 20 -57 l1 -58 12 55
c9 44 15 55 31 55 15 0 22 -11 31 -50 l12 -50 1 46 c1 38 5 48 24 56 31 14 57
-1 57 -32 0 -29 -26 -34 -33 -7 -4 13 -5 11 -6 -5 -1 -16 5 -23 18 -23 11 0
22 -9 26 -19 3 -11 12 -22 20 -25 8 -3 15 -11 15 -18 0 -20 -147 -19 -155 0
-5 13 -8 13 -23 1 -14 -12 -65 -17 -94 -9 -20 5 -55 3 -66 -4 -25 -15 -62 3
-68 33 -5 22 -10 27 -25 24 -12 -3 -19 -14 -19 -28 0 -13 -7 -25 -15 -29 -19
-7 -27 25 -23 90 3 42 6 49 26 52 13 2 29 -2 37 -8 11 -9 19 -8 37 4 27 19 31
19 46 4z m431 -12 c11 -8 15 -8 18 2 6 15 49 16 58 1 5 -7 13 -4 26 7 18 16
20 15 38 -26 l19 -44 4 35 c2 23 9 35 21 37 16 3 18 -4 15 -69 l-3 -72 -43 -4
c-24 -2 -50 1 -57 7 -9 8 -15 8 -20 0 -8 -13 -48 -13 -62 1 -8 8 -17 7 -32 -3
-36 -22 -56 0 -59 68 -4 78 25 101 77 60z"/>
<path d="M4330 10766 c0 -116 7 -139 35 -116 11 9 15 36 15 105 0 107 -5 125
-31 125 -18 0 -19 -9 -19 -114z"/>
<path d="M4271 10065 c0 -44 1 -48 13 -32 7 9 18 17 25 17 6 0 11 7 11 15 0 8
-7 15 -15 15 -7 0 -19 8 -24 18 -8 13 -10 6 -10 -33z"/>
<path d="M4561 10034 c0 -11 3 -14 6 -6 3 7 2 16 -1 19 -3 4 -6 -2 -5 -13z"/>
<path d="M4688 10104 c-12 -11 -10 -72 2 -79 6 -3 10 1 10 9 0 9 7 16 15 16 8
0 15 7 15 15 0 8 -6 15 -14 15 -8 0 -16 7 -18 16 -2 9 -6 12 -10 8z"/>
<path d="M4770 10064 c0 -25 4 -43 8 -40 12 7 14 86 2 86 -5 0 -10 -21 -10
-46z"/>
<path d="M3499 10979 c-43 -21 -71 -62 -94 -139 -9 -30 -21 -65 -27 -77 -6
-11 -7 -26 -4 -32 9 -14 46 -15 46 -1 0 17 41 10 135 -23 72 -26 91 -36 93
-53 2 -12 12 -24 22 -27 15 -4 23 6 38 47 43 109 56 167 44 187 -7 10 -12 25
-12 32 0 20 -60 73 -104 91 -49 20 -91 19 -137 -5z m130 -68 c52 -27 64 -45
64 -97 0 -54 -23 -85 -51 -68 -10 6 -33 15 -52 19 -19 4 -39 11 -45 15 -5 5
-26 12 -45 17 -32 9 -35 13 -32 44 1 24 11 42 34 62 38 32 74 34 127 8z"/>
<path d="M3629 10579 c-8 -11 -54 -37 -104 -58 -167 -70 -165 -68 -165 -111
l0 -38 118 -31 c169 -46 182 -51 182 -67 0 -16 35 -19 45 -5 3 5 2 35 -1 65
-5 45 -10 56 -25 56 -10 0 -22 -7 -26 -15 -5 -9 -17 -12 -30 -9 -16 4 -25 19
-33 56 -7 27 -11 50 -9 51 2 1 15 8 28 16 21 11 25 11 33 -3 5 -9 18 -16 28
-16 18 0 20 7 20 65 0 62 -1 65 -24 65 -13 0 -30 -9 -37 -21z m-99 -159 c0
-33 -1 -34 -50 -16 l-35 13 30 16 c44 24 55 21 55 -13z"/>
<path d="M3682 10235 c-40 -17 -52 -43 -28 -61 10 -7 23 -11 30 -8 9 4 46 -52
46 -70 0 -5 -72 -47 -75 -44 -1 2 -12 24 -24 49 -18 38 -26 46 -42 42 -30 -8
-32 -23 -10 -68 21 -44 18 -52 -31 -73 -25 -10 -27 -9 -41 26 -14 33 -14 38 0
49 14 11 14 15 -1 37 -16 25 -17 25 -51 9 -19 -9 -35 -22 -35 -29 0 -7 18 -51
40 -98 22 -47 40 -89 40 -94 0 -17 27 -33 44 -26 9 3 16 17 16 29 0 24 -2 23
169 103 26 12 36 13 39 4 4 -14 48 -16 57 -3 4 8 -100 242 -108 241 -1 -1 -17
-7 -35 -15z"/>
<path d="M5404 10201 c-95 -43 -148 -183 -88 -230 35 -27 48 -26 62 4 10 21 9
26 -9 36 -17 8 -19 16 -13 42 19 87 105 124 182 77 55 -34 67 -98 31 -157 -17
-28 -26 -33 -45 -29 -17 5 -26 1 -34 -13 -15 -30 -13 -38 19 -51 44 -18 81 6
119 78 37 70 39 98 12 152 -27 54 -68 89 -110 95 -19 3 -46 8 -60 10 -14 2
-44 -4 -66 -14z"/>
<path d="M3826 9974 c-10 -10 -14 -24 -10 -36 3 -11 0 -39 -7 -64 -13 -42 -15
-44 -50 -44 -52 0 -99 -49 -99 -102 0 -35 8 -47 75 -114 82 -81 112 -92 108
-38 -2 25 10 42 72 107 62 65 78 77 98 72 14 -4 28 -1 35 8 10 12 3 24 -38 66
-43 45 -53 51 -66 40 -9 -8 -14 -23 -11 -37 5 -25 -28 -65 -48 -59 -10 4 -11
64 0 132 6 34 3 43 -18 63 -23 22 -26 22 -41 6z m-4 -225 l27 -22 -31 -39 -32
-38 -28 27 c-32 30 -35 54 -12 77 21 22 45 20 76 -5z"/>
<path d="M5147 9877 c-48 -45 -87 -86 -87 -92 0 -5 12 -23 25 -40 l25 -30 22
22 c17 18 20 25 10 35 -9 9 -6 18 15 40 33 35 52 35 80 -2 l23 -28 -36 -31
c-20 -18 -34 -39 -32 -49 6 -29 38 -26 74 9 l34 33 25 -24 c32 -30 31 -40 -3
-73 -21 -20 -31 -24 -40 -15 -8 8 -15 8 -27 -2 -21 -18 -19 -33 9 -60 l25 -23
38 31 c21 17 63 56 93 86 51 52 53 57 38 73 -14 14 -20 14 -33 3 -14 -12 -26
-3 -93 70 -60 65 -77 90 -77 113 0 17 -4 32 -10 33 -5 2 -50 -34 -98 -79z"/>
<path d="M6231 7714 c0 -11 3 -14 6 -6 3 7 2 16 -1 19 -3 4 -6 -2 -5 -13z"/>
<path d="M6245 7660 c-18 -20 -18 -20 16 -14 43 9 45 10 21 23 -15 8 -23 6
-37 -9z"/>
<path d="M7840 11770 c8 -5 24 -10 35 -10 17 0 17 2 5 10 -8 5 -24 10 -35 10
-17 0 -17 -2 -5 -10z"/>
<path d="M10025 11744 c-11 -2 -58 -12 -105 -21 -47 -9 -89 -19 -95 -24 -5 -4
-32 -10 -58 -12 -27 -3 -54 -11 -61 -16 -7 -6 -35 -14 -62 -18 -26 -3 -59 -12
-74 -20 -14 -7 -39 -13 -55 -13 -17 0 -35 -4 -40 -8 -6 -5 -71 -28 -145 -51
-139 -44 -183 -61 -176 -69 5 -4 70 15 98 29 9 4 39 11 67 15 28 4 54 11 57
15 3 5 15 9 28 9 12 0 26 3 30 7 4 4 21 8 39 8 18 1 43 7 55 14 20 11 51 16
202 35 19 2 47 7 63 11 16 4 27 3 27 -3 0 -12 -48 -35 -107 -53 -24 -7 -43
-16 -43 -21 0 -4 -8 -8 -18 -8 -10 0 -23 -5 -30 -12 -9 -9 -18 -9 -38 1 -24
11 -26 10 -14 -3 11 -14 6 -16 -38 -16 -28 0 -53 -4 -57 -9 -3 -6 -27 -13 -53
-16 -26 -4 -61 -13 -79 -21 -17 -8 -46 -14 -64 -14 -18 0 -40 -6 -48 -13 -9
-8 -56 -26 -106 -42 -49 -15 -103 -33 -120 -40 -16 -7 -73 -29 -125 -50 -102
-39 -316 -142 -337 -162 -7 -6 -22 -15 -33 -18 -11 -4 -18 -10 -15 -15 3 -5
18 -2 33 6 24 12 27 12 30 -2 3 -11 7 -12 17 -4 7 6 35 19 62 29 40 15 334
133 398 160 11 5 40 16 65 26 25 9 53 21 62 26 10 5 25 9 34 9 9 0 30 6 47 14
52 24 232 85 268 92 19 4 39 10 44 15 6 4 28 10 50 14 22 4 45 11 50 15 6 4
26 11 45 15 60 11 71 16 64 27 -5 8 3 9 24 5 24 -5 34 -2 41 11 7 12 25 17 63
19 77 3 181 17 196 27 7 4 19 3 27 -4 11 -9 23 -9 51 0 23 8 55 10 88 5 28 -4
104 -9 168 -11 75 -2 130 -9 154 -19 20 -8 40 -12 45 -9 5 3 9 -2 9 -11 0 -9
14 -21 30 -27 37 -12 34 -31 -6 -38 -29 -6 -29 -6 -5 -12 19 -6 30 -1 48 20
27 31 30 47 7 38 -19 -7 -57 12 -48 25 4 7 10 6 19 -1 9 -8 14 -6 19 6 7 18
-1 37 -13 29 -11 -6 -61 19 -89 46 -17 15 -31 20 -52 15 -17 -3 -30 -1 -32 6
-3 8 -10 8 -24 0 -11 -6 -36 -7 -60 -3 -23 4 -55 6 -72 3 -16 -2 -32 0 -36 6
-3 5 -26 7 -50 5 -50 -6 -96 2 -96 17 0 6 21 10 48 10 38 1 43 3 29 11 -19 11
-188 21 -222 13z"/>
<path d="M7068 11713 c16 -28 39 -46 46 -34 4 5 -8 19 -25 32 -29 20 -31 21
-21 2z"/>
<path d="M10320 11699 c0 -5 5 -7 10 -4 6 3 10 8 10 11 0 2 -4 4 -10 4 -5 0
-10 -5 -10 -11z"/>
<path d="M10710 11593 c1 -26 2 -27 14 -10 11 14 15 15 20 5 5 -10 7 -10 12
-1 9 21 6 27 -21 30 -22 3 -25 0 -25 -24z"/>
<path d="M7280 11580 c0 -5 5 -10 10 -10 6 0 10 5 10 10 0 6 -4 10 -10 10 -5
0 -10 -4 -10 -10z"/>
<path d="M10805 11581 c-3 -6 -12 -8 -20 -4 -8 3 -15 0 -15 -6 0 -12 16 -13
44 -2 13 5 16 10 9 14 -7 4 -14 3 -18 -2z"/>
<path d="M10838 11553 c7 -3 16 -2 19 1 4 3 -2 6 -13 5 -11 0 -14 -3 -6 -6z"/>
<path d="M10520 11544 c0 -14 30 -33 44 -28 22 9 7 34 -20 34 -13 0 -24 -3
-24 -6z"/>
<path d="M10600 11520 c0 -5 4 -10 9 -10 6 0 13 5 16 10 3 6 -1 10 -9 10 -9 0
-16 -4 -16 -10z"/>
<path d="M10736 11521 c-4 -7 -5 -15 -2 -18 9 -9 19 4 14 18 -4 11 -6 11 -12
0z"/>
<path d="M8040 11486 c0 -9 5 -16 10 -16 6 0 10 4 10 9 0 6 -4 13 -10 16 -5 3
-10 -1 -10 -9z"/>
<path d="M10778 11493 c7 -3 16 -2 19 1 4 3 -2 6 -13 5 -11 0 -14 -3 -6 -6z"/>
<path d="M9100 11481 c0 -5 -16 -12 -35 -15 -30 -6 -164 -57 -260 -101 -16 -7
-61 -25 -100 -40 -38 -15 -130 -57 -203 -92 -111 -54 -131 -67 -121 -79 9 -11
8 -14 -5 -14 -9 0 -16 -4 -16 -10 0 -17 22 -11 105 29 44 21 100 48 125 59
148 66 210 97 210 104 0 4 10 8 23 8 12 0 51 14 85 30 35 17 70 30 78 30 8 0
14 3 14 8 0 7 33 24 87 43 18 6 31 15 28 19 -3 5 3 13 12 19 16 9 16 10 -4 11
-13 0 -23 -4 -23 -9z"/>
<path d="M6841 11434 c6 -8 18 -14 26 -14 20 0 8 16 -17 23 -17 4 -19 3 -9 -9z"/>
<path d="M11818 11153 c5 -21 7 -23 10 -9 2 10 0 22 -6 28 -6 6 -7 0 -4 -19z"/>
<path d="M11851 11144 c6 -8 18 -14 26 -14 20 0 8 16 -17 23 -17 4 -19 3 -9
-9z"/>
<path d="M11895 11113 c-18 -12 -18 -13 -1 -13 11 0 16 -5 13 -14 -10 -24 5
-26 25 -3 11 12 17 18 15 12 -2 -5 -1 -19 4 -30 7 -19 8 -19 8 3 1 12 6 22 12
22 7 0 10 -23 8 -67 -3 -50 -1 -67 10 -71 11 -4 13 3 8 29 -4 19 -3 28 1 22
11 -17 72 -29 72 -15 0 6 -4 14 -10 17 -15 9 -12 25 5 25 27 0 16 19 -20 31
-19 7 -35 17 -35 21 0 4 -5 8 -10 8 -6 0 -28 8 -49 18 -32 16 -41 17 -56 5z
m130 -63 c3 -5 1 -10 -4 -10 -6 0 -11 5 -11 10 0 6 2 10 4 10 3 0 8 -4 11 -10z"/>
<path d="M8520 11110 c0 -5 7 -7 15 -4 8 4 15 8 15 10 0 2 -7 4 -15 4 -8 0
-15 -4 -15 -10z"/>
<path d="M8488 11093 c7 -3 16 -2 19 1 4 3 -2 6 -13 5 -11 0 -14 -3 -6 -6z"/>
<path d="M11847 11093 c-4 -3 -7 -11 -7 -17 0 -6 5 -4 10 4 9 13 11 13 19 0 6
-8 13 -11 18 -7 4 5 1 12 -7 17 -18 12 -25 12 -33 3z"/>
<path d="M11735 11080 c3 -5 8 -10 11 -10 2 0 4 5 4 10 0 6 -5 10 -11 10 -5 0
-7 -4 -4 -10z"/>
<path d="M7070 11030 c0 -19 3 -21 12 -12 9 9 9 15 0 24 -9 9 -12 7 -12 -12z"/>
<path d="M11837 11043 c-4 -3 -7 -11 -7 -17 0 -6 5 -5 12 2 6 6 9 14 7 17 -3
3 -9 2 -12 -2z"/>
<path d="M11880 11021 c0 -23 32 -36 55 -23 15 8 15 10 -1 23 -16 12 -17 12
-11 -3 3 -10 2 -18 -4 -18 -6 0 -13 9 -16 20 -7 26 -23 26 -23 1z"/>
<path d="M12082 11028 c-5 -7 -7 -21 -3 -31 5 -14 8 -12 18 13 11 31 4 40 -15
18z"/>
<path d="M7126 11007 c3 -10 9 -15 12 -12 3 3 0 11 -7 18 -10 9 -11 8 -5 -6z"/>
<path d="M8290 10999 c0 -5 5 -7 10 -4 6 3 10 8 10 11 0 2 -4 4 -10 4 -5 0
-10 -5 -10 -11z"/>
<path d="M12152 10984 c-11 -12 -7 -14 20 -14 23 0 29 -3 19 -9 -11 -7 -10
-11 6 -19 15 -9 19 -7 20 8 3 32 -44 56 -65 34z"/>
<path d="M12095 10929 c-4 -11 -11 -16 -18 -13 -9 5 -8 3 0 -6 7 -7 28 -19 48
-26 32 -11 35 -10 30 5 -4 14 1 16 32 14 l38 -4 -27 16 c-16 9 -28 19 -28 23
0 5 -16 8 -35 9 -26 1 -36 -4 -40 -18z"/>
<path d="M14405 10924 c-16 -16 -15 -30 1 -81 4 -13 1 -12 -14 6 l-19 24 -17
-24 c-9 -13 -16 -29 -16 -36 0 -8 -10 -30 -23 -51 -13 -20 -36 -64 -52 -97
-16 -33 -35 -64 -42 -68 -7 -5 -11 -12 -8 -17 3 -5 -3 -18 -15 -30 -11 -11
-20 -30 -20 -42 0 -11 -19 -46 -42 -77 -23 -31 -34 -50 -25 -42 15 12 17 11
17 -3 0 -9 -4 -16 -10 -16 -5 0 -10 -4 -10 -10 0 -15 36 -12 50 5 7 8 19 15
26 15 19 0 45 28 66 70 25 51 52 95 61 98 4 2 7 9 7 15 0 7 9 18 20 25 12 7
18 17 14 23 -3 6 1 18 9 27 16 19 21 88 7 97 -6 3 -10 15 -10 26 0 16 5 19 20
14 16 -5 19 -3 13 11 -4 12 -3 15 5 10 7 -4 12 -14 12 -22 0 -8 4 -12 10 -9 5
3 7 19 4 34 -4 16 -1 32 5 35 6 4 11 15 11 24 0 14 -2 15 -10 2 -5 -8 -12 -12
-15 -8 -11 10 18 46 32 41 7 -3 13 0 13 7 0 6 -9 14 -21 17 -16 4 -17 8 -7 14
9 6 9 9 1 9 -6 0 -19 -7 -28 -16z m2 -36 c-3 -8 -6 -5 -6 6 -1 11 2 17 5 13 3
-3 4 -12 1 -19z"/>
<path d="M7041 10904 c0 -11 3 -14 6 -6 3 7 2 16 -1 19 -3 4 -6 -2 -5 -13z"/>
<path d="M12305 10900 c3 -5 8 -10 11 -10 2 0 4 5 4 10 0 6 -5 10 -11 10 -5 0
-7 -4 -4 -10z"/>
<path d="M12175 10870 c-4 -6 5 -10 19 -10 14 0 26 5 26 10 0 6 -9 10 -19 10
-11 0 -23 -4 -26 -10z"/>
<path d="M12260 10860 c0 -5 5 -10 11 -10 5 0 7 5 4 10 -3 6 -8 10 -11 10 -2
0 -4 -4 -4 -10z"/>
<path d="M12231 10841 c-8 -5 -9 -11 -3 -15 5 -3 12 1 16 9 6 17 6 18 -13 6z"/>
<path d="M7490 10795 c-20 -24 -6 -28 15 -5 10 11 13 20 8 20 -6 0 -16 -7 -23
-15z"/>
<path d="M7555 10720 c-9 -15 -1 -23 21 -18 15 3 16 4 1 16 -11 9 -17 10 -22
2z"/>
<path d="M7000 10500 c0 -5 5 -10 11 -10 5 0 7 5 4 10 -3 6 -8 10 -11 10 -2 0
-4 -4 -4 -10z"/>
<path d="M7170 10370 c0 -5 5 -10 10 -10 6 0 10 5 10 10 0 6 -4 10 -10 10 -5
0 -10 -4 -10 -10z"/>
<path d="M14177 10363 c-4 -3 -7 -11 -7 -17 0 -6 5 -5 12 2 6 6 9 14 7 17 -3
3 -9 2 -12 -2z"/>
<path d="M6830 10335 c7 -9 15 -13 17 -11 7 7 -7 26 -19 26 -6 0 -6 -6 2 -15z"/>
<path d="M8238 10183 c-9 -10 -19 -32 -23 -50 -6 -28 -3 -34 24 -47 32 -17 61
-12 61 10 0 8 -11 20 -25 26 -31 14 -33 35 -4 40 21 3 21 3 2 21 -19 16 -20
16 -35 0z"/>
<path d="M7841 10164 c0 -11 3 -14 6 -6 3 7 2 16 -1 19 -3 4 -6 -2 -5 -13z"/>
<path d="M7855 10110 c3 -5 8 -10 11 -10 2 0 4 5 4 10 0 6 -5 10 -11 10 -5 0
-7 -4 -4 -10z"/>
<path d="M7870 10076 c0 -9 5 -16 10 -16 6 0 10 4 10 9 0 6 -4 13 -10 16 -5 3
-10 -1 -10 -9z"/>
<path d="M8662 10035 c0 -16 2 -22 5 -12 2 9 2 23 0 30 -3 6 -5 -1 -5 -18z"/>
<path d="M8167 9895 c11 -22 20 -32 26 -26 7 7 4 19 -7 35 -25 38 -38 31 -19
-9z"/>
<path d="M13920 9856 c0 -9 5 -16 10 -16 6 0 10 4 10 9 0 6 -4 13 -10 16 -5 3
-10 -1 -10 -9z"/>
<path d="M7916 9851 c-4 -7 -5 -15 -2 -18 9 -9 19 4 14 18 -4 11 -6 11 -12 0z"/>
<path d="M8296 9721 c10 -10 21 -17 23 -15 6 6 -20 34 -32 34 -6 0 -2 -8 9
-19z"/>
<path d="M7881 9714 c0 -11 3 -14 6 -6 3 7 2 16 -1 19 -3 4 -6 -2 -5 -13z"/>
<path d="M7861 9666 c-9 -10 -9 -16 -1 -21 17 -10 37 12 24 25 -8 8 -15 6 -23
-4z"/>
<path d="M7812 9567 c-6 -29 -12 -62 -12 -74 0 -12 -5 -33 -11 -46 -8 -18 -8
-30 0 -46 14 -25 35 -18 26 9 -3 9 -1 29 4 43 7 18 7 27 -2 31 -9 3 -9 5 1 5
8 1 10 9 6 27 -5 18 0 34 15 55 22 29 21 49 -2 49 -7 0 -18 -24 -25 -53z"/>
<path d="M14087 9569 c7 -7 15 -10 18 -7 3 3 -2 9 -12 12 -14 6 -15 5 -6 -5z"/>
<path d="M6541 9423 c-13 -33 -8 -83 8 -83 15 0 19 23 12 70 l-6 45 -14 -32z"/>
<path d="M7535 9250 c4 -6 11 -8 16 -5 14 9 11 15 -7 15 -8 0 -12 -5 -9 -10z"/>
<path d="M7620 9224 c0 -9 5 -14 12 -12 18 6 21 28 4 28 -9 0 -16 -7 -16 -16z"/>
<path d="M8120 9084 c0 -8 5 -12 10 -9 6 4 8 11 5 16 -9 14 -15 11 -15 -7z"/>
<path d="M8030 9062 c0 -5 7 -13 16 -16 10 -4 14 -1 12 6 -5 15 -28 23 -28 10z"/>
<path d="M7843 8960 c0 -30 2 -43 4 -27 2 15 2 39 0 55 -2 15 -4 2 -4 -28z"/>
<path d="M11138 8919 c-10 -27 3 -71 19 -65 8 3 21 6 29 6 8 0 14 7 14 15 0 8
-8 15 -18 15 -11 0 -23 10 -29 22 -7 17 -11 18 -15 7z"/>
<path d="M9511 8854 c0 -11 3 -14 6 -6 3 7 2 16 -1 19 -3 4 -6 -2 -5 -13z"/>
<path d="M11210 8850 c-13 -8 -12 -10 3 -10 9 0 17 5 17 10 0 12 -1 12 -20 0z"/>
<path d="M11224 8814 c5 -13 2 -15 -16 -11 l-21 6 21 -22 c16 -15 25 -18 33
-10 13 13 3 53 -13 53 -5 0 -7 -7 -4 -16z"/>
<path d="M11300 8750 c0 -5 -7 -7 -15 -4 -27 11 -16 -12 13 -26 15 -8 29 -15
32 -16 3 -1 11 4 17 11 10 11 10 17 -3 29 -17 18 -44 21 -44 6z"/>
<path d="M9517 8707 c-12 -32 -8 -107 6 -107 8 0 11 14 9 48 -5 73 -6 80 -15
59z"/>
<path d="M11360 8701 c0 -8 52 -31 71 -31 5 0 1 9 -8 20 -17 20 -63 28 -63 11z"/>
<path d="M9570 8689 c0 -5 5 -7 10 -4 6 3 10 8 10 11 0 2 -4 4 -10 4 -5 0 -10
-5 -10 -11z"/>
<path d="M7496 8624 c-9 -22 -8 -24 10 -24 9 0 14 -3 12 -7 -2 -5 -10 -21 -18
-38 -8 -16 -22 -35 -30 -42 -13 -11 -13 -12 3 -13 15 0 16 -3 5 -22 -7 -13
-17 -26 -21 -29 -4 -3 -1 -11 7 -18 17 -14 17 -15 57 99 11 30 24 63 29 72 6
11 6 19 0 23 -6 3 -10 0 -10 -7 0 -8 -5 -6 -11 5 -12 21 -25 22 -33 1z"/>
<path d="M7461 8544 c0 -11 3 -14 6 -6 3 7 2 16 -1 19 -3 4 -6 -2 -5 -13z"/>
<path d="M9452 8143 c-51 -3 -62 -7 -60 -20 2 -11 -8 -19 -30 -25 -18 -5 -36
-17 -39 -26 -4 -9 -10 -19 -14 -22 -4 -3 -10 -23 -14 -44 -7 -35 -6 -38 9 -33
10 4 26 7 36 7 10 0 32 11 47 24 36 30 83 29 142 -5 44 -24 60 -63 47 -115 -7
-26 5 -43 29 -44 24 0 46 60 48 134 2 62 -1 79 -19 103 -26 35 -82 74 -103 71
-9 -1 -44 -3 -79 -5z"/>
<path d="M7560 7411 c0 -11 -4 -22 -9 -25 -5 -3 -12 -26 -15 -51 -4 -24 -11
-47 -17 -50 -5 -4 -9 -16 -9 -28 -1 -12 -8 -40 -16 -62 -9 -22 -22 -60 -29
-85 -7 -25 -16 -53 -20 -62 -14 -34 15 -18 32 17 9 19 19 35 22 35 3 0 7 28 8
61 1 34 6 66 12 72 5 7 12 30 16 52 4 22 11 45 15 50 15 19 29 85 19 91 -5 3
-9 -4 -9 -15z"/>
<path d="M7379 7266 c-8 -8 2 -76 11 -76 13 0 28 24 32 50 2 19 -2 26 -17 28
-12 2 -23 1 -26 -2z"/>
<path d="M6177 7223 c-12 -11 -8 -23 8 -23 8 0 15 7 15 15 0 16 -12 20 -23 8z"/>
<path d="M6240 7209 c0 -5 5 -7 10 -4 6 3 10 8 10 11 0 2 -4 4 -10 4 -5 0 -10
-5 -10 -11z"/>
<path d="M7318 7159 c-7 -4 -7 -9 0 -13 10 -6 62 9 62 18 0 6 -50 2 -62 -5z"/>
<path d="M11081 7139 c18 -11 39 -11 39 0 0 5 -12 9 -26 9 -18 0 -22 -3 -13
-9z"/>
<path d="M7360 7132 c0 -7 -15 -12 -36 -12 -21 0 -33 -4 -29 -10 3 -5 19 -10
36 -10 23 0 29 -4 30 -22 1 -16 4 -12 9 12 5 20 5 39 -1 45 -6 5 -9 5 -9 -3z"/>
<path d="M7530 7063 c58 -67 216 -223 225 -223 6 0 6 3 -1 8 -5 4 -59 60 -118
125 -59 64 -113 117 -119 117 -6 0 0 -12 13 -27z"/>
<path d="M7315 7070 c-3 -6 1 -13 10 -16 19 -8 30 0 20 15 -8 14 -22 14 -30 1z"/>
<path d="M10858 7043 c7 -3 16 -2 19 1 4 3 -2 6 -13 5 -11 0 -14 -3 -6 -6z"/>
<path d="M7172 7010 c0 -19 2 -27 5 -17 2 9 2 25 0 35 -3 9 -5 1 -5 -18z"/>
<path d="M7431 6994 c0 -11 3 -14 6 -6 3 7 2 16 -1 19 -3 4 -6 -2 -5 -13z"/>
<path d="M7417 6953 c-4 -6 -10 -33 -12 -60 l-6 -48 16 43 c16 43 17 90 2 65z"/>
<path d="M7157 6933 c-15 -15 -1 -253 14 -253 5 0 9 9 9 20 0 11 3 20 8 20 4
0 5 35 4 77 -2 43 -4 93 -4 111 1 30 -15 42 -31 25z"/>
<path d="M10598 6913 c7 -3 16 -2 19 1 4 3 -2 6 -13 5 -11 0 -14 -3 -6 -6z"/>
<path d="M10856 6852 c-12 -19 -18 -82 -7 -82 6 0 11 10 11 23 1 21 1 21 12 3
8 -15 8 -21 0 -24 -31 -10 3 -75 41 -78 38 -3 59 -15 47 -29 -7 -9 -3 -15 16
-24 35 -16 38 -10 18 30 -32 62 -34 69 -34 89 0 29 -27 77 -49 90 -23 12 -48
13 -55 2z"/>
<path d="M7760 6820 c0 -5 5 -10 11 -10 5 0 7 5 4 10 -3 6 -8 10 -11 10 -2 0
-4 -4 -4 -10z"/>
<path d="M14285 6250 c-3 -5 -1 -10 4 -10 6 0 11 5 11 10 0 6 -2 10 -4 10 -3
0 -8 -4 -11 -10z"/>
<path d="M6785 6170 c-3 -5 -1 -10 4 -10 6 0 11 5 11 10 0 6 -2 10 -4 10 -3 0
-8 -4 -11 -10z"/>
<path d="M14334 6159 c-3 -6 -1 -16 5 -22 8 -8 11 -5 11 11 0 24 -5 28 -16 11z"/>
<path d="M14280 6140 c0 -5 5 -10 10 -10 6 0 10 5 10 10 0 6 -4 10 -10 10 -5
0 -10 -4 -10 -10z"/>
<path d="M14422 6134 c-11 -12 -17 -12 -28 -3 -20 16 -19 -7 1 -28 18 -17 45
-11 45 12 0 8 7 15 16 15 8 0 12 5 9 10 -9 14 -28 12 -43 -6z"/>
<path d="M14215 6130 c-3 -6 1 -7 9 -4 18 7 21 14 7 14 -6 0 -13 -4 -16 -10z"/>
<path d="M6760 6114 c0 -8 5 -12 10 -9 6 3 10 10 10 16 0 5 -4 9 -10 9 -5 0
-10 -7 -10 -16z"/>
<path d="M14346 6094 c-3 -9 -6 -32 -6 -53 0 -22 -7 -45 -18 -57 -20 -21 -18
-44 3 -44 23 0 38 -37 25 -60 -6 -11 -16 -20 -21 -20 -7 0 -9 -10 -5 -24 7
-28 -15 -47 -45 -39 -21 6 -49 -13 -49 -32 0 -6 12 -18 26 -26 24 -12 28 -12
44 9 21 25 55 29 76 7 13 -13 17 -13 30 -1 16 17 19 56 4 56 -16 0 -12 46 5
60 8 7 12 17 8 23 -3 6 -1 7 6 3 6 -4 14 0 17 8 3 9 12 16 20 16 8 0 14 9 14
20 0 14 -7 20 -23 20 -25 0 -50 32 -41 55 4 8 1 15 -6 15 -7 0 -10 6 -7 14 6
15 -28 66 -43 66 -4 0 -11 -7 -14 -16z"/>
<path d="M6718 6083 c7 -3 16 -2 19 1 4 3 -2 6 -13 5 -11 0 -14 -3 -6 -6z"/>
<path d="M14198 6047 c-21 -11 -38 -24 -38 -29 0 -13 16 -9 30 7 7 8 18 15 26
15 12 0 30 18 23 24 -2 2 -21 -6 -41 -17z"/>
<path d="M14435 6060 c-3 -5 -2 -17 2 -25 8 -13 11 -13 31 1 12 8 22 19 22 25
0 12 -47 12 -55 -1z"/>
<path d="M14288 6041 c-27 -15 -32 -32 -12 -38 15 -4 46 24 42 39 -2 12 -8 11
-30 -1z"/>
<path d="M14490 5942 c0 -41 14 -56 44 -48 34 8 34 26 0 26 -16 0 -24 5 -21
13 2 6 10 11 16 10 6 -2 11 3 11 10 0 7 -11 14 -25 15 -21 1 -25 -2 -25 -26z"/>
<path d="M14250 5920 c-9 -6 -10 -10 -3 -10 6 0 15 5 18 10 8 12 4 12 -15 0z"/>
<path d="M14140 5910 c0 -5 5 -10 10 -10 6 0 10 5 10 10 0 6 -4 10 -10 10 -5
0 -10 -4 -10 -10z"/>
<path d="M14181 5901 c-14 -4 -26 -12 -29 -20 -3 -10 0 -11 16 -2 11 6 30 11
41 11 12 0 21 5 21 10 0 11 -13 11 -49 1z"/>
<path d="M6840 5890 c-9 -6 -10 -10 -3 -10 6 0 15 5 18 10 8 12 4 12 -15 0z"/>
<path d="M14552 5893 c-10 -4 -10 -8 -1 -19 9 -11 8 -18 -5 -32 -20 -23 -21
-36 -1 -28 10 3 15 -1 15 -13 0 -10 7 -22 16 -25 13 -5 15 -2 9 11 -16 38 -22
92 -12 102 11 11 1 13 -21 4z"/>
<path d="M14610 5850 c0 -13 5 -18 15 -14 8 4 15 10 15 14 0 4 -7 10 -15 14
-10 4 -15 -1 -15 -14z"/>
<path d="M14640 5791 c0 -25 6 -27 13 -6 4 8 2 17 -3 20 -6 4 -10 -3 -10 -14z"/>
<path d="M9144 5785 c11 -8 25 -15 32 -15 6 0 17 -7 24 -15 7 -8 17 -15 22
-15 16 0 -12 30 -43 46 -37 19 -60 18 -35 -1z"/>
<path d="M14705 5760 c-3 -5 -1 -10 4 -10 6 0 11 5 11 10 0 6 -2 10 -4 10 -3
0 -8 -4 -11 -10z"/>
<path d="M14405 5730 c-8 -13 5 -13 25 0 13 8 13 10 -2 10 -9 0 -20 -4 -23
-10z"/>
<path d="M14620 5720 c0 -5 7 -10 15 -10 8 0 15 5 15 10 0 6 -7 10 -15 10 -8
0 -15 -4 -15 -10z"/>
<path d="M14355 5710 c-8 -13 20 -24 36 -15 8 6 7 10 -2 16 -18 11 -26 11 -34
-1z"/>
<path d="M3725 5683 c-28 -7 -54 -32 -69 -67 -13 -29 -91 -335 -126 -491 -5
-22 -27 -114 -50 -205 -57 -229 -70 -281 -76 -311 -12 -55 73 -146 126 -136
14 3 124 15 245 26 121 12 243 26 270 31 28 5 104 12 170 16 66 3 126 9 135
14 8 4 67 11 130 15 63 5 124 9 135 10 11 2 88 10 170 18 231 24 265 29 271
38 3 5 -306 9 -693 9 -674 0 -699 1 -730 20 -42 25 -61 84 -45 138 6 20 25
120 42 222 88 527 84 511 141 541 38 19 60 19 763 17 l725 -3 30 -29 c29 -28
31 -34 31 -105 0 -42 -7 -101 -15 -131 -36 -133 -10 -114 35 25 17 55 36 108
41 117 5 10 9 38 9 64 0 39 -5 51 -33 79 -40 40 -54 42 -377 50 -129 3 -383
10 -565 15 -574 17 -670 18 -690 13z"/>
<path d="M9516 5555 c4 -8 12 -15 20 -15 20 0 17 7 -6 20 -16 9 -18 8 -14 -5z"/>
<path d="M9560 5536 c0 -2 8 -10 18 -17 15 -13 16 -12 3 4 -13 16 -21 21 -21
13z"/>
<path d="M3935 5411 c-38 -20 -85 -45 -102 -54 -27 -14 -31 -21 -23 -35 6 -9
14 -29 20 -44 12 -34 26 -35 86 -3 26 14 48 24 50 23 3 -4 -18 -132 -51 -313
-35 -196 -37 -185 34 -185 52 0 59 2 65 23 12 41 79 422 91 512 4 33 11 67 15
75 15 30 0 40 -58 39 -46 0 -71 -8 -127 -38z"/>
<path d="M4403 5431 c-10 -11 -29 -34 -43 -52 -14 -18 -32 -39 -40 -48 -8 -9
-63 -75 -121 -146 -101 -124 -106 -133 -112 -187 l-6 -57 147 -3 c125 -3 146
-5 143 -18 -3 -8 -7 -39 -9 -68 l-4 -53 58 3 c64 3 61 0 78 101 7 35 9 37 46
37 25 0 42 6 48 16 8 15 10 15 15 0 5 -14 27 -16 152 -16 135 0 146 -1 141
-17 -2 -10 -6 -40 -8 -68 l-3 -50 60 0 60 0 10 65 10 65 45 5 c44 5 45 6 52
49 9 55 5 61 -38 61 -40 0 -40 0 -18 120 8 47 21 121 28 165 8 44 15 87 17 95
3 12 -11 16 -74 18 -42 2 -83 -1 -91 -5 -7 -4 -55 -60 -107 -123 -51 -63 -122
-148 -156 -189 -50 -58 -63 -81 -63 -107 0 -44 -18 -53 -22 -12 -3 29 -7 33
-35 36 -42 4 -42 0 2 262 26 150 32 135 -62 138 -71 2 -85 0 -100 -17z m17
-231 c-29 -162 -20 -150 -106 -150 -41 0 -74 3 -74 6 0 7 194 253 197 250 1
-1 -7 -49 -17 -106z m528 5 c-10 -55 -22 -112 -25 -127 -5 -28 -6 -28 -84 -28
-44 0 -79 3 -79 6 0 5 16 25 120 152 65 79 84 101 86 98 1 0 -7 -46 -18 -101z"/>
<path d="M15127 5275 c-10 -14 -13 -25 -7 -25 5 0 10 5 10 10 0 6 7 10 15 10
8 0 15 7 15 15 0 22 -12 18 -33 -10z"/>
<path d="M15185 5240 c4 -6 11 -8 16 -5 14 9 11 15 -7 15 -8 0 -12 -5 -9 -10z"/>
<path d="M15085 5120 c3 -5 13 -10 21 -10 8 0 14 5 14 10 0 6 -9 10 -21 10
-11 0 -17 -4 -14 -10z"/>
<path d="M15476 5108 c3 -13 11 -24 15 -26 5 -2 9 -10 9 -17 0 -14 25 -27 34
-18 13 13 5 33 -14 33 -13 0 -22 9 -26 25 -3 14 -10 25 -16 25 -5 0 -6 -10 -2
-22z"/>
<path d="M5265 5080 c-9 -15 -55 -269 -72 -398 l-5 -43 43 3 c48 3 51 9 64
121 l6 57 76 0 75 0 -5 -52 c-3 -29 -9 -70 -12 -90 l-7 -38 40 0 c48 0 52 5
62 78 5 32 13 75 18 97 6 22 13 60 16 85 3 25 10 72 16 104 13 72 9 86 -27 86
-49 0 -54 -9 -69 -132 l-7 -48 -74 0 -75 0 7 68 c4 37 11 74 16 83 4 9 5 19 2
23 -10 10 -81 7 -88 -4z"/>
<path d="M15550 5075 c0 -8 7 -15 15 -15 8 0 15 7 15 15 0 8 -7 15 -15 15 -8
0 -15 -7 -15 -15z"/>
<path d="M15462 5038 c7 -19 38 -22 38 -4 0 10 -9 16 -21 16 -12 0 -19 -5 -17
-12z"/>
<path d="M15562 5021 c-11 -6 -10 -10 4 -15 20 -8 32 0 18 14 -5 5 -15 5 -22
1z"/>
<path d="M15620 5005 c-14 -17 -5 -50 10 -40 5 3 14 14 20 25 12 23 -13 36
-30 15z"/>
<path d="M5602 4945 c-7 -15 -10 -31 -7 -36 4 -5 33 -9 66 -9 32 0 59 -2 59
-5 0 -3 -36 -48 -81 -100 -65 -77 -80 -100 -77 -122 l3 -28 111 -3 112 -3 5
28 c3 15 3 31 0 35 -2 5 -29 8 -59 8 -30 0 -54 3 -54 6 0 3 34 46 76 96 63 76
75 95 72 122 l-3 31 -106 3 c-105 3 -106 3 -117 -23z"/>
<path d="M15540 4950 c0 -11 4 -20 9 -20 11 0 22 26 14 34 -12 12 -23 5 -23
-14z"/>
<path d="M15860 4930 c0 -5 9 -10 20 -10 11 0 20 5 20 10 0 6 -9 10 -20 10
-11 0 -20 -4 -20 -10z"/>
<path d="M16156 4635 c-9 -26 -7 -32 5 -12 6 10 9 21 6 23 -2 3 -7 -2 -11 -11z"/>
<path d="M16540 4320 c0 -5 5 -10 10 -10 6 0 10 5 10 10 0 6 -4 10 -10 10 -5
0 -10 -4 -10 -10z"/>
<path d="M16420 4300 c0 -5 5 -10 11 -10 5 0 7 5 4 10 -3 6 -8 10 -11 10 -2 0
-4 -4 -4 -10z"/>
<path d="M16495 4300 c-3 -5 -1 -10 4 -10 6 0 11 5 11 10 0 6 -2 10 -4 10 -3
0 -8 -4 -11 -10z"/>
<path d="M16743 4268 c-26 -13 -28 -25 -9 -50 14 -19 42 -25 31 -8 -12 19 26
23 40 4 11 -14 17 -16 22 -7 5 6 17 11 27 10 10 -1 22 7 26 19 8 19 5 22 -18
21 -15 -1 -30 -6 -34 -12 -4 -5 -17 0 -31 13 -26 25 -24 24 -54 10z"/>
<path d="M16916 4252 c-3 -6 -1 -14 5 -17 15 -10 25 3 12 16 -7 7 -13 7 -17 1z"/>
<path d="M4768 2183 c6 -2 18 -2 25 0 6 3 1 5 -13 5 -14 0 -19 -2 -12 -5z"/>
<path d="M13025 2080 c-3 -5 -1 -10 4 -10 6 0 11 5 11 10 0 6 -2 10 -4 10 -3
0 -8 -4 -11 -10z"/>
<path d="M16475 2080 c3 -5 8 -10 11 -10 2 0 4 5 4 10 0 6 -5 10 -11 10 -5 0
-7 -4 -4 -10z"/>
<path d="M9171 2034 c0 -11 3 -14 6 -6 3 7 2 16 -1 19 -3 4 -6 -2 -5 -13z"/>
<path d="M17208 1993 c6 -2 18 -2 25 0 6 3 1 5 -13 5 -14 0 -19 -2 -12 -5z"/>
<path d="M4630 1660 l-55 -7 57 -1 c31 -1 60 3 63 8 3 6 3 9 -2 8 -4 -1 -33
-4 -63 -8z"/>
<path d="M4488 1653 c12 -2 30 -2 40 0 9 3 -1 5 -23 4 -22 0 -30 -2 -17 -4z"/>
<path d="M20418 595 c-2 -3 -519 -10 -1149 -15 -629 -6 -1463 -15 -1854 -20
-1043 -12 -14020 -13 -15025 0 -454 6 -1106 13 -1450 15 -344 3 -691 6 -772 8
-82 2 -148 -1 -148 -5 0 -4 5 -8 10 -8 6 0 10 -4 10 -10 0 -12 88 -93 259
-235 68 -57 177 -150 181 -156 16 -20 82 -42 149 -48 48 -5 95 -18 129 -34
l53 -26 962 -6 c545 -3 1040 -11 1142 -17 162 -11 4880 -20 7340 -14 363 0
1927 2 3475 3 1799 1 2902 6 3056 12 133 6 547 11 920 12 662 0 1451 13 1804
28 121 5 187 12 215 23 22 9 72 21 110 26 90 13 102 18 165 72 112 95 216 184
250 213 19 16 68 57 108 90 39 33 72 65 72 73 0 7 6 15 13 17 8 4 6 6 -4 6 -9
1 -18 -1 -21 -4z"/>
</g>
</svg>
